<?xml version="1.0" encoding="UTF-8"?>
<svg viewBox="0 0 1182 1182" xmlns="http://www.w3.org/2000/svg">
<path d="m590.5 176.98-0.487-0.984-5.513-5.356-4.299-1.644-0.048-1 0.347-0.449 2-1.907 1-0.288 1-0.907 0.348-0.449v-1l-5.701-6-0.147-3 0.146-3 0.708-1 0.142-1 0.15-4 0.708-1 0.292-4 0.708-1 0.292-5 0.708-1 0.292-4 0.708-1 0.292-4 0.708-1 0.292-4 0.708-1 0.292-3 0.708-1 0.292-4 0.708-1 0.292-4 0.708-1 0.293-3 0.862-1 0.219-1 0.272-3.956 0.272 3.956 0.219 1 0.862 1 0.293 3 0.708 1 0.292 4 0.708 1 0.292 4 0.708 1 0.292 3 0.708 1 0.292 4 0.708 1 0.292 4 0.708 1 0.292 4 0.708 1 0.292 5 0.708 1 0.292 4 0.708 1 0.15 4 0.142 1 0.708 1 0.146 3-0.147 3-5.701 6v1l0.348 0.449 1 0.907 1 0.288 2 1.907 0.347 0.449-0.048 1-4.299 1.644-5.513 5.356-0.487 0.984zm377 414.34-24 0.035-1-0.708-2-0.292-1-0.708-2-0.292-4-1.998-2-1.712-1-0.288-3-2.712-1-0.288-3-2.712-1-0.288-3-2.712-1-0.288-3-2.712-1-0.288-3-2.712-1.456-0.644-3.088-3-1.456-0.644-4-3.712-1-0.288-3-2.712-1.456-0.644-3.544-3.356-1-0.288-3-2.712-1.456-0.644-3.088-3-1.912-1-4.088-4-1.456-0.644-3.544-3.356-1.912-1-3.088-3-1.912-1-3.088-3-1.912-1-4.088-4-1.456-0.644-4.544-4.356-1.912-1-4.088-4-1.912-1-5.088-5-1.912-1-5.088-5-1.912-1-7.088-7-1.912-1-10.088-10-2.456-1.501-11-10.998-3-2.002-15-14.998-2.455-1.501-0.902-1-0.333-1-2.31-1.501-22.499-22.499-2.002-3-20.499-20.544-1-1.912-9.499-9.544-1.501-2.456-7.499-7.544-1.501-2.456-7-7.088-1-1.912-5-5.088-1-1.912-5-5.088-1-1.912-4-4.088-0.644-1.456-4.356-4.544-1-1.912-4-4.088-1-1.912-3-3.088-1-1.912-3-3.088-1-1.912-3.356-3.544-0.288-1-2.712-3-0.644-1.456-3.356-3.544-0.288-1-2.712-3-0.288-1-2.712-3-0.288-1-2.712-3-0.288-1-2.712-3-0.288-1-2.712-3-0.288-1-2.712-3-0.288-1-1.712-2-0.288-1-2.712-3-0.288-1-1.712-2-0.288-1-1.712-2-0.288-1-2.712-3-0.288-1-1.712-2-0.288-1-1.712-2-0.288-1-1.712-2-0.288-1-2.712-3-0.288-1-1.712-2-0.288-1-1.712-2-0.288-1-3.712-5-1.288-3-1.712-2-0.288-1-3.712-5-1.288-3-1.712-2-1.288-3-1.712-2-1.289-3-1.355-1.151-1.355 1.151-1.289 3-1.712 2-1.288 3-1.712 2-1.288 3-3.712 5-0.288 1-1.712 2-1.288 3-3.712 5-0.288 1-1.712 2-0.288 1-1.712 2-0.288 1-2.712 3-0.288 1-1.712 2-0.288 1-1.712 2-0.288 1-1.712 2-0.288 1-2.712 3-0.288 1-1.712 2-0.288 1-1.712 2-0.288 1-2.712 3-0.288 1-1.712 2-0.288 1-2.356 2.544-0.644 1.456-2.712 3-0.288 1-2.712 3-0.288 1-2.356 2.544-0.644 1.456-2.712 3-0.288 1-2.712 3-0.288 1-3.356 3.544-0.644 1.456-2.712 3-0.288 1-3.356 3.544-1 1.912-3 3.088-1 1.912-3 3.088-1 1.912-4 4.088-1 1.912-4 4.088-1 1.912-4 4.088-1 1.912-5 5.088-1 1.912-5 5.088-1 1.912-7 7.088-1.501 2.456-7.499 7.544-1.501 2.456-9.499 9.544-1 1.912-20.499 20.544-2.002 3-22.499 22.499-2.31 1.501-0.333 1-0.902 1-2.455 1.501-15 14.998-3 2.002-11 10.998-2.456 1.501-10.088 10-1.912 1-7.088 7-1.912 1-5.088 5-1.912 1-5.088 5-1.912 1-4.088 4-1.912 1-4.088 4-1.912 1-4.088 4-1.912 1-3.088 3-1.912 1-3.088 3-1.912 1-3.544 3.356-1.456 0.644-4.088 4-1.912 1-3.088 3-1.456 0.644-3 2.712-1 0.288-3.544 3.356-1.456 0.644-3 2.712-1.456 0.644-3.544 3.356-1.456 0.644-3.088 3-1.456 0.644-3 2.712-1 0.288-3 2.712-1 0.288-3 2.712-1 0.288-3 2.712-1 0.288-3 2.712-1 0.288-2 1.712-4 1.998-2 0.292-1 0.708-2 0.292-1 0.708-22 0.142-2.973-0.496 1.973-1.351 3-1.293 2-1.712 5-2.288 2-1.712 1-0.288 3-2.712 1-0.288 2-1.712 1-0.288 2-1.712 1-0.288 3-2.712 1-0.288 7-5.712 1-0.288 3-2.712 1-0.288 3.544-3.356 1.456-0.644 3-2.712 1-0.288 3.544-3.356 1.912-1 3.088-3 1.456-0.644 3-2.712 1.456-0.644 4.088-4 1.912-1 3.088-3 1.912-1 4.088-4 1.912-1 4.088-4 1.456-0.644 4.544-4.356 1.912-1 5.088-5 1.912-1 4.088-4 1.456-0.644 4.544-4.356 1.912-1 6.088-6 1.912-1 5.088-5 1.912-1 8.088-8 2.456-1.501 8.544-8.499 2.456-1.501 11.544-11.499 2.456-1.501 57.499-57.499 1.501-2.456 10-10.088 1-1.912 9-9.088 1-1.912 6-6.088 1-1.912 6-6.088 1.501-2.456 5.499-5.544 1-1.912 4-4.088 1-1.912 4-4.088 1-1.912 4-4.088 0.644-1.456 3.356-3.544 1-1.912 4-4.088 0.644-1.456 2.712-3 0.288-1 3.356-3.544 1-1.912 3-3.088 0.644-1.456 2.712-3 0.288-1 3.356-3.544 0.644-1.456 2.712-3 0.288-1 2.712-3 0.288-1 2.712-3 0.288-1 1.712-2 0.644-1.456 2.356-2.544 0.288-1 1.712-2 0.288-1 2.712-3 0.288-1 2.356-2.544 0.644-1.456 1.712-2 0.288-1 2.712-3 0.288-1 1.712-2 0.288-1 1.712-2 0.288-1 1.712-2 0.288-1 1.712-2 0.288-1 1.712-2 0.288-1 1.712-2 0.288-1 1.712-2 0.288-1 1.712-2 0.288-1 1.712-2 0.288-1 1.712-2 0.288-1 1.712-2 0.288-1 3.712-5 1.288-3 3.712-5 1.288-3 1.712-2 0.288-1 1.712-2 1.288-3 1.709-2 1e-3 -3-1.998-4-3.712-5-0.288-1-2.712-3-0.288-1-3.356-3.544-1-1.912-3.347-3.544 0.048-1 1.299-0.495 12 0.142 1.356 1.353 0.288 1 1.712 2 0.288 1 1.712 2 0.288 1 2.712 3 0.288 1 1.356 1.983 1.356-1.983 0.288-1 2.712-3 0.288-1 1.712-2 0.288-1 1.712-2 0.288-1 1.356-1.353 11-0.147 2 0.2 0.347 1.3-3.347 3.544-1 1.912-3.356 3.544-0.288 1-2.712 3-0.288 1-3.712 5-1.998 4 1e-3 3 1.709 2 1.288 3 1.712 2 0.288 1 1.712 2 1.288 3 3.712 5 1.288 3 3.712 5 0.288 1 1.712 2 0.288 1 1.712 2 0.288 1 1.712 2 0.288 1 1.712 2 0.288 1 1.712 2 0.288 1 1.712 2 0.288 1 1.712 2 0.288 1 1.712 2 0.288 1 1.712 2 0.288 1 1.712 2 0.288 1 1.712 2 0.288 1 2.712 3 0.288 1 1.712 2 0.644 1.456 2.356 2.544 0.288 1 2.712 3 0.288 1 1.712 2 0.644 1.456 2.356 2.544 0.288 1 1.712 2 0.288 1 2.712 3 0.288 1 2.712 3 0.288 1 2.712 3 0.644 1.456 3.356 3.544 0.288 1 2.712 3 0.644 1.456 3 3.088 1 1.912 3.356 3.544 0.288 1 2.712 3 0.644 1.456 4 4.088 0.644 1.456 3.356 3.544 1 1.912 4 4.088 1 1.912 4 4.088 0.644 1.456 4.356 4.544 1 1.912 6 6.088 1 1.912 6 6.088 1 1.912 6 6.088 1 1.912 9 9.088 1 1.912 10 10.088 1.501 2.456 57.499 57.499 2.456 1.501 11.544 11.499 2.456 1.501 9.088 9 1.912 1 8.088 8 1.912 1 5.088 5 1.912 1 6.088 6 1.912 1 4.088 4 1.456 0.644 4.544 4.356 1.912 1 5.088 5 1.456 0.644 4.544 4.356 1.912 1 4.088 4 1.912 1 4.088 4 1.456 0.644 3.544 3.356 1.912 1 4.088 4 1.456 0.644 3 2.712 1 0.288 3.544 3.356 1.912 1 3.088 3 1.456 0.644 3 2.712 1 0.288 3.544 3.356 1.456 0.644 3 2.712 1 0.288 3 2.712 1 0.288 3 2.712 1 0.288 3 2.712 1 0.288 2 1.712 1 0.288 2 1.712 1 0.288 2.544 2.356 1.456 0.644 2 1.712 5 2.288 2 1.712 3 1.293 1.973 1.351-0.973 0.319zm-653 276.03-50 0.143-3-0.992-43-0.012-1-0.144-1-0.912-1-0.166-12-0.01-0.956-0.26 0.956-0.26 19-0.239 3-0.997 20-8e-3 3-0.992 20-8e-3 3-0.992 27-8e-3 3-0.992 14-8e-3 1.305-0.496 0.155-285-0.46-1.076-4 3.432-1 0.288-2.544 2.356-1.456 0.644-2 1.712-4 1.998-2 0.292-1 0.708-6 0.292-1 0.708-1 0.142h-8l-1-0.142-1-0.708-4.973-0.646 1.973-1.351 1-0.289 2.544-2.36 1.456-0.644 2-1.712 1-0.288 3-2.712 1-0.288 3-2.712 1.456-0.644 3.544-3.356 1.456-0.644 3.544-3.356 1.456-0.644 4.088-4 1.456-0.644 3.544-3.356 1.912-1 3.088-3 1.912-1 4.088-4 1.912-1 4.088-4 1.456-0.644 4.544-4.356 1.912-1 5.088-5 1.912-1 6.088-6 1.912-1 5.088-5 1.912-1 7.088-7 2.456-1.501 8.544-8.499 2.456-1.501 11.544-11.499 2.456-1.501 20-19.998 3-2.002 29-28.987 1-0.588 0.498 2.076-0.145 61-10.353 10.499-1 0.857-1 0.288-3 2.709-12 0.342-0.496 1.305-4e-3 2 4e-3 5 0.142 1 0.703 1-1e-3 1-0.348 0.45-3.544 3.55-1.912 1-5.544 5.353-7 0.151-1 0.142-1 0.708-3 0.341-0.496 1.305 0.143 4 1.706 2v2l-1.353 1.356-1.456 0.644-8.544 8.353-5 0.342-0.496 1.305-0.151 3-1.897 2-1.912 1-3.544 3.488-1 0.588-0.46-1.076-0.235-10-1.305-0.496h-3l-1 0.142-2.455 1.354-0.898 1-0.143 1-0.151 17-5.353 4.347-1.3-0.347-0.346-5-0.708-1-0.139-1 0.139-1 0.703-1v-1l-0.703-1-0.142-1-0.204-11-1.3-0.347-1 0.848-3 3.044-0.496 1.455 0.032 14 0.464 1.089 1.095-0.089 0.369 1 0.182 3 0.708 1v2l-0.998 2-0.901 1-1.911 1-6.544 6.347-1-0.048-0.495-1.299 0.142-35 6.897-7 1.456-0.644 3-2.704 1-1e-3 1 0.703 1 0.142h3l3-0.992 10-0.151 1-0.9 0.353-0.453 0.147-2-2e-3 -21-0.416-2-1.082 0.512-2 1.844-1.456 0.644-7.088 7-1.456 0.644-3.544 3.356-1.912 1-5.088 5-1.912 1-6.088 6-1.456 0.644-3.544 3.356-1.456 0.644-3.544 3.356-1.766 1-0.845 2 0.651 2 6e-3 54 0.498 2.076 1-0.588 4.544-4.488 1.456-0.644 3.544-3.356 1.912-1 6.088-6 1.912-1 5.088-5 1.912-1 6.088-6 2.456-1.501 5.544-5.499 1.912-1 7.088-7 2.456-1.501 7.544-7.499 2.456-1.501 9.544-9.499 2.456-1.501 8.544-8.499 2.456-1.501 13-12.998 3-2.002 18-17.998 3-2.002 44.499-44.499 1.501-2.456 13-13.088 1-1.912 7-7.088 1-1.912 5-5.088 1-1.912 5-5.088 1-1.912 4-4.088 0.644-1.456 3.356-3.544 1-1.912 4-4.088 1-1.912 3-3.088 1-1.912 3-3.088 0.644-1.456 2.712-3 0.288-1 2.712-3 0.288-1 2.712-3 0.288-1 2.709-3-0.048-30-1.305-0.496-7 0.143-4 3.897-1.502 2.456-1.498 1.151-1.352-1.151-0.144-1 0.143-12 1.709-2 0.644-1.456 4.36-4.544 0.64-1.443 1-0.633 0.459 1.076 0.045 6 0.496 1.305 6 0.191 1.305-0.496 0.193-29-0.498-2.973-0.431 0.973-2.925 3-0.288 1-1.712 2-0.288 1-1.712 2-0.288 1-3.356 3.544-0.644 1.456-2.712 3-0.288 1-2.712 3-0.288 1-3.356 3.544-0.644 1.456-2.712 3-0.288 1-3.356 3.544-0.644 1.456-2.712 3-0.288 1-3.712 4-0.288 1-5.709 7-0.143 1v18l0.496 1.305 3 0.191 1-0.142 1-0.708 5-0.341 0.647-2.305 0.898-1 2.455-1.354 1-0.138 1.305 0.492 0.342 4 1.353 1.348h1l3-2.892 0.644-1.456 2.709-3 0.143-3-0.496-1.453-1-0.9-5-0.143-1 0.19-1 1.612-7 0.19-1-0.191-0.496-1.305 0.143-11 2.709-3 0.644-1.456 4-4.032 1-0.588 0.46 1.076 0.077 10 0.463 1.078 2-0.574 10-0.151 2-1.841 1.082-0.512 0.416 2-0.145 16-3.353 3.544-1 1.912-4 4.088-1.501 2.456-2.499 2.353-2.308 0.647-1.336 3-1.356 1.353-6 0.142-1.299-0.495-0.049-1 0.702-1 0.142-1v-3l-0.143-1-1.353-1.348-1-1e-3 -2 0.993-3 2.709-2.305 0.647v11l1.305 0.492 3-0.988 6 1e-3 1.299 0.495 0.048 1-4.347 4.544-1 1.912-2 1.897-5 0.151-1.305 0.496-0.341 7-0.998 2-9.356 9.544-1 1.899-1 0.633-0.496-2.076 0.19-9 1.762-1 1.897-2 0.293-4 0.703-1-1e-3 -1-1.348-1.353-4-0.341-1-1.607-1-0.046-2 1.7-1 0.143-23 0.151-1.356 1.353-0.288 1-0.857 1-11.499 11.545-0.496 1.455-4e-3 11 5e-3 24 0.495 1.299 1 0.048 0.449-0.347 5.904-6 0.151-7 0.496-1.305 8-0.342 9.353-9.353-1e-3 -9-1.352-1.153-2 0.646-1-0.139-1-0.703h-1l-2.306 1.349-0.194 3 0.037 3 0.378 1 1.085-0.357 1.3 0.357 0.191 1-0.491 1.453-1 0.9-1 0.143h-8l-1.305-0.496-0.048-12 8.353-8.353 11-0.143 3 0.989 1-0.139 1-0.702 1.3 0.348 0.196 22-0.143 1-0.854 1-21.998 22-0.858 1-0.333 1-1.766 1-7.043 7-1.501 2.455-1 0.901-1.455 0.644-1.545 2.31-1 0.333-1 0.902-1 1.754-1-1e-3 -0.492-1.298 0.139-63 11.852-12 1.501-2.456 8.499-8.544 1.501-2.456 8-8.088 1-1.912 5-5.088 0.644-1.456 4.356-4.544 0.644-1.456 3.356-3.544 1-1.912 4-4.088 1-1.912 4-4.088 1-1.912 3-3.088 1-1.912 3-3.088 1-1.912 3.356-3.544 0.288-1 2.712-3 0.644-1.456 3-3.088 1-1.912 3-3.088 1-1.912 3.356-3.544 0.288-1 2.712-3 0.288-1 2.712-3 0.288-1 2.712-3 0.288-1 2.712-3 0.288-1 2.712-3 0.288-1 2.712-3 0.288-1 1.712-2 0.288-1 2.712-3 0.288-1 1.712-2 0.288-1 2.712-3 0.288-1 3.712-5 0.288-1 2.356-2.076 0.498 2.076-0.145 102-1.709 2-0.644 1.456-2.356 2.544-0.288 1-2.712 3-0.288 1-1.712 2-0.644 1.456-2.356 2.544-0.288 1-3.356 3.544-0.644 1.456-2.712 3-0.288 1-2.712 3-0.644 1.456-3 3.088-0.644 1.456-3.356 3.544-1 1.912-3 3.088-1 1.912-4 4.088-1 1.912-5 5.088-1 1.912-4 4.088-1 1.912-7 7.088-1 1.912-12.499 12.544-2.002 3-37.499 37.499-3 2.002-10.353 10.499-0.342 255-2.305 0.646-5 2.702-1.3-0.348-0.202-247-0.498-2.076-1 0.588-13.544 13.488-2.456 1.501-11.544 11.499-1.912 1-7.088 7-1.912 1-8.088 8-1.912 1-7.088 7-2.456 1.501-4.353 4.499-0.151 220-0.143 1-1.897 2-1.456 0.644-3 2.712-2 0.992-1-0.049-0.495-1.299-1e-3 -5 0.142-1 0.708-1 0.146-2-0.146-2-0.708-1-0.142-1v-93l0.142-1 0.708-1 0.146-3-0.146-3-0.708-1-0.142-1v-84l0.142-1 0.708-1 0.146-5-0.146-2-0.708-1-0.142-1-0.044-5-0.378-1-1.082 0.512-4.544 4.488-1.912 1-5.088 5-1.912 1-5.088 5-1.456 0.644-4.544 4.356-1.912 1-5.088 5-1.912 1-3.897 4-0.151 220-0.496 1.455-9.499 9.545-1.501 2.456-3 2.897zm603 1e-3 -51-1e-3 -3-2.897-1.501-2.456-9.852-10-0.294-221-3.897-4-1.912-1-5.088-5-1.456-0.644-4.544-4.356-1.912-1-5.088-5-1.912-1-5.088-5-1.912-1-4.544-4.488-1-0.588-0.46 1.076-0.186 6-0.708 1-0.146 2 0.146 5 0.708 1 0.142 1v84l-0.142 1-0.708 1-0.146 2 0.146 4 0.708 1 0.142 1v93l-0.142 1-0.708 1-0.146 2 0.146 2 0.708 1 0.142 1-0.196 6-1.3 0.348-2-0.992-3-2.712-1.456-0.644-1.897-2-0.294-221-4.353-4.499-2.456-1.501-7.088-7-1.912-1-8.088-8-1.912-1-7.088-7-1.912-1-11.544-11.499-2.456-1.501-13.544-13.488-1-0.588-0.498 2.076-0.202 247-1.3 0.348-5-2.702-2.305-0.646-0.342-255-10.353-10.499-3-2.002-37.499-37.499-2.002-3-12.499-12.544-1-1.912-7-7.088-1-1.912-4-4.088-1-1.912-5-5.088-1-1.912-4-4.088-0.644-1.456-3.356-3.544-1-1.912-3-3.088-1-1.912-3-3.088-0.644-1.456-2.712-3-0.288-1-2.712-3-0.644-1.456-3.356-3.544-0.288-1-2.356-2.544-0.644-1.456-1.712-2-0.288-1-2.712-3-0.288-1-2.356-2.544-0.644-1.456-1.709-2-0.145-102 0.498-2.076 2.356 2.076 0.288 1 3.712 5 0.288 1 2.712 3 0.288 1 1.712 2 0.288 1 2.712 3 0.288 1 1.712 2 0.288 1 5.712 7 0.288 1 2.712 3 0.288 1 2.712 3 0.288 1 2.712 3 0.288 1 2.712 3 0.288 1 3.356 3.544 1 1.912 3 3.088 1 1.912 3 3.088 0.644 1.456 2.712 3 0.288 1 3.356 3.544 1 1.912 3 3.088 1 1.912 3 3.088 1 1.912 4 4.088 1 1.912 4 4.088 0.644 1.456 3.356 3.544 1 1.912 4.356 4.544 0.644 1.456 5 5.088 1 1.912 8 8.088 1.501 2.456 8.499 8.544 1.501 2.456 11.852 12 0.139 63-0.492 1.298-1 1e-3 -1-1.754-1-0.902-1-0.333-1.545-2.31-1.455-0.644-1-0.901-1.501-2.455-7.043-7-1.766-1-0.333-1-0.858-1-21.998-22-0.854-1-0.143-1 0.196-22 1.3-0.348 1 0.702 1 0.139 3-0.989 11 0.143 8.353 8.353-0.048 12-1.305 0.496h-8l-1-0.143-1-0.9-0.491-1.453 0.191-1 1.3-0.357 1.085 0.357 0.378-1 0.037-3-0.194-3-2.306-1.349h-1l-1 0.703-1 0.139-2-0.646-1.352 1.153-1e-3 9 9.353 9.353 8 0.342 0.496 1.305 0.151 7 5.904 6 0.449 0.347 1-0.048 0.495-1.299 5e-3 -4-4e-3 -31-0.496-1.455-11.499-11.545-0.857-1-0.288-1-1.356-1.353-23-0.151-1-0.143-2-1.7-1 0.046-1 1.607-4 0.341-1.348 1.353-1e-3 1 0.703 1 0.293 4 1.897 2 1.762 1 0.19 9-0.496 2.076-1-0.633-1-1.899-9.356-9.544-0.998-2-0.341-7-1.305-0.496-5-0.151-2-1.897-1-1.912-4.347-4.544 0.048-1 1.299-0.495 6-1e-3 3 0.988 1.305-0.492v-11l-2.305-0.647-3-2.709-2-0.993-1 1e-3 -1.353 1.348-0.143 1v3l0.142 1 0.702 1-0.049 1-1.299 0.495-6-0.142-1.356-1.353-1.336-3-2.308-0.647-2.499-2.353-1.501-2.456-4-4.088-1-1.912-3.353-3.544-0.145-16 0.416-2 1.082 0.512 2 1.841 10 0.151 2 0.574 0.463-1.078 0.077-10 0.46-1.076 1 0.588 4 4.032 0.644 1.456 2.709 3 0.143 11-0.496 1.305-1 0.191-7-0.19-1-1.612-1-0.19-5 0.143-1 0.9-0.496 1.453 0.143 3 2.709 3 0.644 1.456 3 2.892h1l1.353-1.348 0.342-4 1.305-0.492 1 0.138 2.455 1.354 0.898 1 0.647 2.305 5 0.341 1 0.708 1 0.142 3-0.191 0.496-1.305v-18l-0.143-1-5.709-7-0.288-1-3.356-3.544-0.644-1.456-2.712-3-0.288-1-3.356-3.544-0.644-1.456-2.712-3-0.288-1-3.712-4-0.288-1-2.712-3-0.288-1-2.712-3-0.644-1.456-3.356-3.544-0.288-1-1.712-2-0.288-1-1.712-2-0.288-1-2.925-3-0.431-0.973-0.498 2.973 0.193 29 1.305 0.496 6-0.191 0.496-1.305 0.045-6 0.459-1.076 1 0.633 0.64 1.443 4.36 4.544 0.644 1.456 1.709 2 0.143 12-0.144 1-1.352 1.151-1.498-1.151-1.502-2.456-4-3.897-7-0.143-1.305 0.496-0.048 30 2.709 3 0.288 1 2.712 3 0.288 1 2.712 3 0.288 1 2.712 3 0.644 1.456 3 3.088 0.644 1.456 3.356 3.544 1 1.912 4 4.088 1 1.912 3.356 3.544 0.644 1.456 4 4.088 1 1.912 5 5.088 1 1.912 5 5.088 1 1.912 7 7.088 1 1.912 13 13.088 1.501 2.456 44.499 44.499 3 2.002 18 17.998 3 2.002 13 12.998 2.456 1.501 8.544 8.499 2.456 1.501 9.544 9.499 2.456 1.501 7.544 7.499 2.456 1.501 7.088 7 1.912 1 5.544 5.499 2.456 1.501 6.088 6 1.912 1 5.088 5 1.912 1 6.088 6 1.912 1 3.544 3.356 1.456 0.644 4.544 4.488 1 0.588 0.498-2.076 6e-3 -54 0.651-2-0.845-2-1.766-1-3.544-3.356-1.456-0.644-3.544-3.356-1.456-0.644-6.088-6-1.912-1-5.088-5-1.456-0.644-3.544-3.356-1.912-1-7.088-7-1.456-0.644-2-1.844-1.082-0.512-0.416 2-2e-3 21 0.147 2 0.353 0.453 1 0.9 10 0.151 3 0.992h3l1-0.142 1-0.703 1 1e-3 3 2.704 1.456 0.644 6.897 7 0.142 35-0.495 1.299-1 0.048-6.544-6.347-1.911-1-0.901-1-0.998-2v-2l0.708-1 0.182-3 0.464-1.089 1.095 0.089 0.369-1 0.032-14-0.496-1.455-3-3.044-1-0.848-1.3 0.347-0.204 11-0.142 1-0.703 1v1l0.703 1 0.139 1-0.139 1-0.708 1-0.346 5-1.3 0.347-5.353-4.347-0.151-17-0.143-1-0.898-1-2.455-1.354-1-0.142h-3l-1.305 0.496-0.235 10-0.46 1.076-1-0.588-3.544-3.488-1.912-1-1.897-2-0.151-3-0.496-1.305-5-0.342-8.544-8.353-1.456-0.644-1.353-1.356v-2l1.706-2 0.143-4-0.496-1.305-3-0.341-1-0.708-1-0.142-7-0.151-5.544-5.353-1.912-1-3.544-3.55-0.348-0.45-1e-3 -1 0.703-1 0.146-3-4e-3 -5-0.496-1.305-12-0.342-3-2.709-1-0.288-1-0.857-10.353-10.499-0.145-61 0.498-2.076 1 0.588 29 28.987 3 2.002 20 19.998 2.456 1.501 11.544 11.499 2.456 1.501 8.544 8.499 2.456 1.501 7.088 7 1.912 1 5.088 5 1.912 1 6.088 6 1.912 1 5.088 5 1.912 1 4.088 4 1.912 1 4.088 4 1.912 1 4.088 4 1.912 1 3.088 3 1.912 1 3.544 3.356 1.456 0.644 4.088 4 1.456 0.644 3.544 3.356 1.456 0.644 3.544 3.356 1.456 0.644 3 2.712 1 0.288 3 2.712 1 0.288 2 1.712 1.456 0.644 2.544 2.36 1 0.289 1.973 1.351-4.973 0.646-1 0.708-1 0.142h-8l-1-0.142-1-0.708-6-0.292-1-0.708-2-0.292-4-1.998-2-1.712-1.456-0.644-2.544-2.356-1-0.288-4-3.432-0.46 1.076 0.155 285 1.305 0.496 14 8e-3 3 0.992 27 8e-3 3 0.992 20 8e-3 3 0.992 20 8e-3 3 0.997 19 0.239 0.956 0.26-0.956 0.26-12 0.01-1 0.166-1 0.912-1 0.144-43 0.012-1 0.142-1 0.708zm-409.55-462.35 1.551-1.353 4-0.151 1.305-0.496v-11l-0.305-0.305-2-0.191-2 0.574-0.496-2.078 0.142-1 2.044-4 1.766-1 1.897-2 0.143-5-0.68-2 0.184-1.085-1-0.214-1 0.85-1 1.905-5 5.088-1 1.912-5 5.088-1 1.912-5 5.088-1 1.912-4.347 4.544 0.048 1 1.299 0.495 13 9e-3 1 0.19 1 1.607 1 0.046 0.449-0.347zm166.86 0 0.696-1.306 1-0.19 13-9e-3 1.299-0.495 0.048-1-4.347-4.544-1-1.912-5-5.088-1-1.912-5-5.088-1-1.912-5-5.088-1-1.905-1-0.85-1 0.214 0.184 1.085-0.68 2 0.143 5 1.897 2 1.766 1 2.044 4 0.142 1-0.496 2.078-2-0.574-2 0.191-0.305 0.305v11l1.305 0.496 4 0.151 2 1.7 1.304-0.347zm-84.304 101.98-0.487-0.984-1.869-2-1.288-3-1.712-2-0.288-1-1.712-2-1.288-3-1.712-2-0.288-1-3.712-5-1.288-3-1.712-2-1.288-3-1.712-2-1.288-3-3.704-5v-1l1.704-2 1.288-3 3.712-5 1.288-3 1.712-2 1.288-3 1.712-2 0.288-1 1.712-2 1.288-3 1.712-2 2.288-5 1.712-2 0.288-1 1.712-2 0.288-1 1.356-1.983 1.356 1.983 0.288 1 1.712 2 0.288 1 1.712 2 2.288 5 1.712 2 1.288 3 1.712 2 0.288 1 1.712 2 1.288 3 1.712 2 1.288 3 1.712 2 0.288 1 1.712 2 1.288 3 1.704 2v1l-3.704 5-1.288 3-1.712 2-1.288 3-1.712 2-1.288 3-1.712 2-0.288 1-3.712 5-1.288 3-1.712 2-0.288 1-1.712 2-1.288 3-1.869 2-0.487 0.984zm0.486-18.984 0.87-1 0.288-1 1.712-2 1.288-3 1.712-2 2.288-5 3.712-5 0.993-2-1e-3 -1-1.704-2-1.288-3-1.712-2-1.288-3-1.712-2-2.288-5-1.712-2-0.288-1-1.356-1.983-1.356 1.983-0.288 1-1.712 2-2.288 5-1.712 2-1.288 3-1.712 2-1.288 3-1.704 2-1e-3 1 0.993 2 1.712 2 0.288 1 1.712 2 2.288 5 1.712 2 1.288 3 1.712 2 0.288 1 1.356 1.983 0.486-0.983zm-202.18 56 0.335-1 2.713-3 0.288-1 1.712-2 0.995-2-0.351-1.3-3-0.204-1.305-0.496-0.191-8 0.496-1.453 4-2.9 5-0.143 1.305 0.496 0.232 3 0.463 1.078 2-0.574 3-8e-3 1-0.19 1-1.616 1-0.333 1.353-1.357 0.143-8-0.496-1.305-15-0.235-1.076-0.46 0.588-1 5.988-6 1.5-1.353 8-0.342 0.496-1.305 0.151-6 14.353-14.499 3.569-2.501 0.431-0.973 0.498 2.973-0.193 12-1.305 0.496-7 8e-3 -1.305 0.496v9l1.305 0.496 9-0.143 8.353-8.353 0.142-35-0.495-1.299-1-0.048-1 0.848-27 26.998-3 2.002-18 17.998-2.456 1.501-3.897 4 0.048 33 1.305 0.496 2 4e-3 2-4e-3 1.308-0.496zm410 0 0.048-33-3.897-4-2.456-1.501-18-17.998-3-2.002-27-26.998-1-0.848-1 0.048-0.495 1.299 0.142 35 8.353 8.353 9 0.143 1.305-0.496v-9l-1.305-0.496-7-8e-3 -1.305-0.496-0.193-12 0.498-2.973 0.431 0.973 3.569 2.501 14.353 14.499 0.151 6 0.496 1.305 8 0.342 7.488 7.353 0.588 1-1.076 0.46-15 0.235-0.496 1.305 0.143 8 1.353 1.357 1 0.333 1 1.616 4 0.198 2 0.574 0.463-1.078 0.232-3 0.305-0.305 6-0.048 2 1.709 1.455 0.644 0.898 1 0.143 1-0.191 8-1.305 0.496-3 0.204-0.351 1.3 0.995 2 1.712 2 0.288 1 2.713 3 0.643 1.306 5 0.19 1.305-0.496zm-202.3 82.076-0.46-1.076-0.186-3-0.708-1-0.142-1-8e-3 -6-0.142-1-0.708-1-0.292-5-0.708-1-0.292-4-0.708-1-0.293-4-0.862-1-0.491-3.956-0.491 3.956-0.862 1-0.293 4-0.708 1-0.292 4-0.708 1-0.292 5-0.708 1-0.142 1-8e-3 6-0.142 1-0.708 1-0.186 3-0.46 1.076-1-0.588-12.499-12.488-0.857-1-0.288-1-2.712-3-4.998-10-0.292-2-0.708-1-0.292-3-0.708-1-0.142-1 0.142-15 0.708-1 0.292-3 0.708-1 0.292-2 1.996-4 1.002-2 1.712-2 0.288-1 1.712-2 0.644-1.456 8.499-8.544 1.501-2.456 4.356-4.544 0.288-1 3.712-5 1.288-3 1.356-1.983 1.356 1.983 1.288 3 3.712 5 0.288 1 4.356 4.544 1.501 2.456 8.499 8.544 0.644 1.456 1.712 2 0.288 1 1.712 2 2.998 6 0.292 2 0.708 1 0.292 3 0.708 1 0.142 1v14l-0.142 1-0.708 1-0.292 3-0.708 1-0.292 2-4.998 10-2.712 3-0.644 1.456-13 13.032-1 0.588zm-52 30.278-6 0.142-1-0.142-1-0.708-4-0.292-1-0.708-2-0.292-1-0.708-2-0.292-2-0.998-2-1.712-1-0.288-2-1.712-1.456-0.644-6.9-7-0.288-1-1.712-2-0.288-1-3.712-5-2.288-5-3.712-5-0.288-1-2.712-3-0.288-1-0.857-1-3.043-3-1.755-1 1e-3 -1 2.298-0.645 1-0.709 3-0.292 1-0.708 2-0.292 3-1.708 2-0.292 15-7.708 2-0.292 1-0.708 3-0.292 1-0.708 6-0.292 1-0.708 1-0.142 2 0.142 1 0.708 1 0.142 6 0.15 1 0.708 2 0.292 8 3.998 2 1.712 1.456 0.644 7.544 7.544 0.644 1.456 2.712 3 7.002 14 0.72 2-1.078 0.463-2-0.109-1-0.708-3-0.292-1-0.708-5-0.292-1-0.708-5-0.292-1-0.708-1-0.142-8 0.032-2 0.346 3 2.474 16 7.998 2 0.292 3 1.708 2 0.293 1.983 1.353-1.983 1.356-1 0.288-2 1.712-1 0.288-2 1.712-5 2.288-2 1.715-2 1-2 0.292-1 0.735-3 0.26-1 0.709-5 0.291-1 0.708zm99 0h-7l-1-0.708-5-0.291-1-0.709-3-0.26-1-0.735-2-0.292-2-1-2-1.715-5-2.288-2-1.712-1-0.288-2-1.712-1-0.288-1.983-1.356 1.983-1.353 2-0.293 3-1.708 2-0.292 2-0.996 14-7.002 2-1.924 1.105-0.432-2.105-0.464-8-0.032-1 0.142-1 0.708-5 0.292-1 0.708-5 0.292-1 0.708-3 0.292-1 0.708-2 0.109-1.078-0.463 0.72-2 7.002-14 2.712-3 0.644-1.456 7-7.043 1-0.857 1-0.288 2-1.712 8-3.998 2-0.292 1-0.708 6-0.15 1-0.142 1-0.708 2-0.142 1 0.142 1 0.708 6 0.292 1 0.708 3 0.292 1 0.708 2 0.292 15 7.708 2 0.292 3 1.708 2 0.292 1 0.708 3 0.292 1 0.709 2.298 0.645 1e-3 1-1.755 1-3.043 3-0.857 1-0.288 1-2.712 3-0.288 1-3.712 5-2.288 5-3.712 5-0.288 1-1.712 2-0.288 1-6.356 6.499-1 0.857-1 0.288-2 1.712-1 0.288-2 1.712-2 0.998-2 0.292-1 0.708-2 0.292-1 0.708-4 0.292-1 0.708zm-53-6.203-2-1.695-1-1.912-5.347-5.544 0.046-1 2.301-1.501 5.513-5.499 0.487-0.984 0.487 0.984 5.513 5.499 2.301 1.501 0.046 1-5.347 5.544-1 1.912-2 1.695zm-52 73.197-1.3-0.348-0.346-6-0.708-1-0.292-3-0.708-1-0.292-2-0.708-1-0.292-2-0.708-1-0.292-2-0.708-1-0.292-2-0.708-1-0.292-4-0.708-1-0.142-1v-7l0.142-1 0.708-1 0.292-3 0.708-1 0.292-3 2.998-6 1.712-2 0.288-1 7.356-7.356 1-0.288 2-1.712 8-4.03 3-0.261 1-0.711 3-0.288 1-0.708 3-0.292 1-0.708 4-0.292 1-0.708 4 0.054 0.348 1.3-0.992 2-1.712 2-3.288 7-1.712 2-0.998 2-0.292 2-2.708 5-0.29 2-1.656 3 0.3 1.972 0.424-0.972 13.576-13.544 1-1.912 4.356-4.544 0.644-1.456 3-2.62 0.46 1.076 0.186 3 0.708 1 0.292 5 0.708 1 0.293 7 0.862 1 0.219 1v5l-0.219 1-0.862 1-0.293 5-0.708 1-1.292 5-2.998 6-1.712 2-0.288 1-8.356 8.356-8 3.998-2 0.292-1 0.708-4 0.292-1 0.708-5 0.15-1 0.142-1 0.708-4 0.292-1 0.708-2 0.292-5 2.702zm105-0.049-1 0.049-5-2.702-2-0.292-1-0.708-4-0.292-1-0.708-1-0.142-5-0.15-1-0.708-4-0.292-1-0.708-2-0.292-8-3.998-8.356-8.356-0.288-1-1.712-2-2.998-6-1.292-5-0.708-1-0.293-5-0.862-1-0.219-1v-5l0.219-1 0.862-1 0.293-7 0.708-1 0.292-5 0.708-1 0.186-3 0.46-1.076 3 2.62 0.644 1.456 4.356 4.544 1 1.912 13.576 13.544 0.424 0.972 0.3-1.972-1.656-3-0.29-2-2.708-5-0.292-2-0.998-2-1.712-2-3.288-7-1.712-2-0.992-2 0.348-1.3 4-0.054 1 0.708 4 0.292 1 0.708 3 0.292 1 0.708 3 0.288 1 0.711 3 0.261 8 4.03 2 1.712 1 0.288 7.356 7.356 0.288 1 1.712 2 2.998 6 0.292 3 0.708 1 0.292 3 0.708 1 0.142 1v7l-0.142 1-0.708 1-0.292 4-0.708 1-0.292 2-0.708 1-0.292 2-0.708 1-0.292 2-0.708 1-0.292 2-0.708 1-0.292 3-0.708 1-0.151 5-0.495 1.299zm225 169.85-2-0.647-123-0.038-1 0.025-1 0.857-2-2e-3 -1-1.428 1-0.377 3-0.032 1-0.857 4-0.294 1-0.712 4-0.292 1-0.708 3-0.292 1-0.708 3-0.346 0.347-1.3-4.347-4.544-1.501-2.456-7.499-7.499-2.456-1.501-6.088-6-1.912-1-3.088-3-1.912-1-3.544-3.356-1-0.288-2-1.712-1-0.288-2-1.712-1-0.288-2-1.712-1-0.288-5-3.712-3-1.288-2-1.712-20-9.998-2-0.292-5-2.708-2-0.292-3-1.708-2-0.292-1-0.708-2-0.292-1-0.708-2-0.292-1-0.708-2-0.292-1-0.708-2-0.292-1-0.708-2-0.292-1-0.708-3-0.292-1-0.708-3-0.292-1-0.708-3-0.292-1-0.708-3-0.292-1-0.708-4-0.292-1-0.708-5-0.292-1-0.708-5-0.292-1-0.708-1-0.142-5-8e-3 -3-0.992-8-8e-3 -1-0.142-1-0.708-2-0.146-29 4e-3 -3 0.992-8 8e-3 -1 0.142-1 0.708-6 0.15-1 0.142-1 0.708-5 0.292-1 0.708-5 0.292-1 0.708-4 0.292-1 0.708-3 0.292-1 0.708-3 0.292-1 0.708-3 0.292-1 0.708-3 0.292-1 0.708-2 0.292-1 0.708-2 0.292-1 0.708-2 0.292-1 0.708-2 0.292-1 0.708-2 0.292-1 0.708-2 0.292-3 1.708-2 0.292-5 2.708-2 0.292-20 9.998-2 1.712-3 1.288-5 3.712-1 0.288-2 1.712-1 0.288-2 1.712-1 0.288-2 1.712-1 0.288-3.544 3.356-1.912 1-3.088 3-1.912 1-6.088 6-2.456 1.501-8 8.043-1 1.912-4.347 4.544 0.347 1.3 3 0.346 1 0.708 3 0.292 1 0.708 4 0.292 1 0.712 4 0.294 1 0.857 3 0.032 1 0.377-1 1.428-2 2e-3 -1-0.857-1-0.025-123 0.038-2 0.647-1.149-1.151 4.149-4.544 1-1.912 4-4.088 1-1.912 4-4.088 1-1.912 9.499-9.544 0.858-1 0.333-1 2.31-1.501 11.544-11.499 1.912-1 4.088-4 1.912-1 3.544-3.356 1-0.288 7-5.712 1-0.288 2-1.712 1-0.288 2-1.712 1-0.288 2-1.712 1-0.288 2-1.712 1-0.288 2-1.712 1-0.288 2-1.712 3-1.288 2-1.712 3-1.288 2-1.712 9-4.288 2-1.712 2-1.002 2-0.996 2-0.292 13-6.708 2-0.292 3-1.708 2-0.292 5-2.708 2-0.292 1-0.708 5-1.292 3-1.708 2-0.292 1-0.708 2-0.292 1-0.708 2-0.292 1-0.708 2-0.292 1-0.708 3-0.292 1-0.708 2-0.292 1-0.708 3-0.292 1-0.708 3-0.292 1-0.708 3-0.292 1-0.708 4-0.292 1-0.708 3-0.292 1-0.708 4-0.292 1-0.708 5-0.292 1-0.708 1-0.142 5-0.15 1-0.708 1-0.142 5-0.15 1-0.708 1-0.142 6-8e-3 3-0.992 9-8e-3 3-0.992 25-6e-3 2.076-0.498-2.432-3-0.288-1-0.857-1-7.499-7.499-2.456-1.501-4.088-4-1.456-0.644-3-2.712-1-0.288-2-1.712-1-0.288-5-3.712-5-2.288-2-1.712-3-1.288-2-1.71-13-0.292-1-0.708-3-0.292-3-1.708-2-0.293-2-1.709-3.456-1.644-8.544-8.544-0.644-1.456-1.712-2-0.288-1-1.712-2-0.998-2-0.292-2-1.708-3-0.292-2-1.708-3-0.292-2-0.708-1-0.292-2-0.708-1-0.292-3-1.702-3 0.348-1.3 4-0.054 1 0.708 4 0.292 1 0.708 1 0.142 4 0.15 1 0.708 3 0.292 1 0.708 3 0.292 10 4.998 2 1.712 1 0.288 1 0.857 6.356 6.499 0.288 1 1.712 2 2.998 6 0.292 2 0.708 1 0.292 2 0.708 1 0.149 6 0.497 1.454 1 0.899 2 0.293 12 5.998 5 3.712 1 0.288 2 1.712 1 0.288 2 1.712 1 0.288 3 2.712 1 0.288 1 0.857 12.356 12.499 0.288 1 2.712 3 0.288 1 2.356 2.544 0.644 1.456 1.712 2 2.288 5 1.712 2 0.998 2 0.292 2 1.708 3 0.292 2 0.712 1 0.294 4 0.912 1 0.166 1 0.27 3.956 0.495-6.956 9e-3 -80 0.143-1 2.353-2.494 1-0.657 1 0.657 2.353 2.494 0.143 1 9e-3 80 0.495 6.956 0.27-3.956 0.166-1 0.912-1 0.294-4 0.712-1 0.292-2 1.708-3 0.292-2 0.998-2 1.712-2 2.288-5 1.712-2 0.644-1.456 2.356-2.544 0.288-1 2.712-3 0.288-1 12.356-12.499 1-0.857 1-0.288 3-2.712 1-0.288 2-1.712 1-0.288 2-1.712 1-0.288 5-3.712 12-5.998 2-0.293 1-0.899 0.497-1.454 0.149-6 0.708-1 0.292-2 0.708-1 0.292-2 2.998-6 1.712-2 0.288-1 6.356-6.499 1-0.857 1-0.288 2-1.712 10-4.998 3-0.292 1-0.708 3-0.292 1-0.708 5-0.292 1-0.708 4-0.292 1-0.708 2-0.146 2 0.2 0.348 1.3-1.702 3-0.292 3-0.708 1-0.292 2-0.708 1-0.292 2-1.708 3-0.292 2-1.708 3-0.292 2-0.998 2-1.712 2-0.288 1-1.712 2-0.644 1.456-8.544 8.544-3.456 1.644-2 1.709-2 0.293-3 1.708-3 0.292-1 0.708-13 0.292-2 1.71-3 1.288-2 1.712-5 2.288-5 3.712-1 0.288-2 1.712-1 0.288-3 2.712-1.456 0.644-4.088 4-2.456 1.501-7.499 7.499-0.857 1-0.288 1-2.432 3 2.076 0.498 25 6e-3 3 0.992 9 8e-3 1 0.142 1 0.708 7 0.15 1 0.142 1 0.708 5 0.15 1 0.142 1 0.708 5 0.15 1 0.142 1 0.708 4 0.15 1 0.142 1 0.708 4 0.292 1 0.708 3 0.292 1 0.708 4 0.292 1 0.708 3 0.292 1 0.708 3 0.292 1 0.708 3 0.292 1 0.708 2 0.292 1 0.708 3 0.292 1 0.708 2 0.292 1 0.708 2 0.292 1 0.708 2 0.292 1 0.708 2 0.292 3 1.708 2 0.292 1 0.708 5 1.292 5 2.708 2 0.292 3 1.708 2 0.292 13 6.708 2 0.292 4 1.998 2 1.712 9 4.288 2 1.712 3 1.288 2 1.712 3 1.288 5 3.712 1 0.288 2 1.712 1 0.288 2 1.712 1 0.288 2 1.712 1 0.288 2 1.712 1 0.288 3 2.712 1 0.288 3 2.712 1.456 0.644 3.544 3.356 1.456 0.644 4.088 4 1.912 1 11.544 11.499 1 0.858 1 0.333 1.501 2.31 9.499 9.544 1 1.912 4 4.088 1 1.912 4 4.088 1 1.912 3.493 3.544 0.656 1-1.149 1.151zm-346.92-156.15 0.377-1-0.104-3-3.356-3.499-2.456-1.501-6.088-6-1.912-1-3.544-3.356-1.456-0.644-3.088-3-1.456-0.642-3-2.712-1.513-0.646-3.487-3.297-1 0.084-0.192 0.213 0.754 1 16.438 16.499 2.456 1.501 7.088 7 1.456 0.644 3 2.844 1.083 0.512zm138.04 0 3.88-3.356 1.456-0.644 7.088-7 2.456-1.501 16.438-16.499 0.754-1-0.192-0.213-1-0.084-3.487 3.297-1.513 0.646-3 2.712-1.456 0.642-3.088 3-1.456 0.644-3.544 3.356-1.912 1-6.088 6-2.456 1.501-3.356 3.499-0.104 3 0.58 1zm-256.67 150 0.903-1 0.644-1.456 5-5.088 1.501-2.456 16.499-16.499 2.456-1.501 4.088-4 1.912-1 3.544-3.356 1-0.288 7-5.712 1-0.288 2-1.712 3-1.288 2-1.712 1-0.288 2-1.712 3-1.288 2-1.712 18-8.998 2-0.292 5-2.708 2-0.292 3-1.708 2-0.292 1-0.708 5-1.292 3-1.708 3-0.292 1-0.708 2-0.292 1-0.708 2-0.292 1-0.708 3-0.292 1-0.708 3-0.292 1-0.708 3-0.292 1-0.708 3-0.292 1-0.708 4-0.292 1-0.708 3-0.292 1-0.708 5-0.292 1-0.708 6-0.292 1-0.708 1-0.142 6-0.15 1-0.708 1-0.142 10-8e-3 3-0.992 7-0.204 0.348-1.3-1.702-3-0.292-2-4.998-10-1.712-2-1.288-3-2.356-2.353-1-0.143h-11l-3 0.992-7 8e-3 -1 0.142-1 0.708-5 0.15-1 0.142-1 0.708-5 0.292-1 0.708-4 0.292-1 0.708-5 0.292-1 0.708-3 0.292-1 0.708-4 0.292-1 0.708-3 0.292-1 0.708-3 0.292-1 0.708-2 0.292-1 0.708-3 0.292-1 0.708-2 0.292-1 0.708-2 0.292-1 0.708-2 0.292-1 0.708-2 0.292-1 0.708-2 0.292-1 0.708-2 0.292-3 1.708-2 0.292-3 1.708-2 0.292-5 2.708-2 0.292-18 8.998-2 1.712-5 2.288-2 1.712-3 1.288-5 3.712-3 1.288-2 1.712-1 0.288-2.544 2.356-1.456 0.644-2 1.712-1 0.288-3.544 3.356-1.456 0.644-3 2.712-1.456 0.644-3.088 3-2.456 1.501-12 11.998-3 2.046-1 1.911-8 8.088-0.644 1.456-3.356 3.544-1 1.912-3 3.088-0.644 1.456-1.712 2-0.288 1-2.703 3 0.048 1 1.299 0.495 19 9e-3 3 0.992h15l1.453-0.496zm393.05 0 1.5-0.496 19-9e-3 1.299-0.495 0.048-1-2.703-3-0.288-1-1.712-2-0.644-1.456-3-3.088-1-1.912-3.356-3.544-0.644-1.456-8-8.088-1-1.911-3-2.046-12.544-12.499-1.456-0.644-4-3.712-1-0.288-3-2.712-1.456-0.644-3.544-3.356-1-0.288-2-1.712-1-0.288-2.544-2.356-1.456-0.644-2-1.712-3-1.288-5-3.712-3-1.288-2-1.712-5-2.288-2-1.712-18-8.998-2-0.292-5-2.708-2-0.292-3-1.708-2-0.292-3-1.708-2-0.292-1-0.708-2-0.292-1-0.708-2-0.292-1-0.708-2-0.292-1-0.708-2-0.292-1-0.708-2-0.292-1-0.708-3-0.292-1-0.708-2-0.292-1-0.708-3-0.292-1-0.708-3-0.292-1-0.708-4-0.292-1-0.708-3-0.292-1-0.708-4-0.15-1-0.142-1-0.708-4-0.292-1-0.708-5-0.292-1-0.708-1-0.142-5-0.15-1-0.708-1-0.142-7-8e-3 -3-0.992h-11l-1.455 0.496-1.901 2-1.288 3-1.712 2-4.998 10-0.292 2-1.702 3 0.348 1.3 7 0.204 3 0.992 10 8e-3 1 0.142 1 0.708 6 0.15 1 0.142 1 0.708 6 0.292 1 0.708 5 0.292 1 0.708 3 0.292 1 0.708 4 0.292 1 0.708 3 0.292 1 0.708 3 0.292 1 0.708 3 0.292 1 0.708 3 0.292 1 0.708 2 0.292 1 0.708 2 0.292 1 0.708 3 0.292 3 1.708 2 0.292 1 0.708 5 1.292 3 1.708 2 0.292 5 2.708 2 0.292 18 8.998 2 1.712 3 1.288 2 1.712 1 0.288 2 1.712 3 1.288 2 1.712 1 0.288 3 2.712 1 0.288 3 2.712 1 0.288 3.544 3.356 1.912 1 4.088 4 2.456 1.501 16.499 16.499 1.501 2.456 5 5.088 0.644 1.456 1.356 1.353 16 0.143 1.5-0.496zm-498.5 1.306-34 0.19-3-0.992-91-0.012-1-0.144-1-0.912-1-0.166-14-0.01-0.956-0.26 0.956-0.26 30-0.239 3-0.997 28-8e-3 3-0.992 28-8e-3 3-0.992 34-8e-3 3-0.992 15-3e-3 2 0.414-0.644 2.085-2.713 3-0.643 1.306zm621 0.048-34 0.142-1.308-0.496-0.335-1-2.713-3-0.722-2 2.078-0.499 15 3e-3 3 0.992 34 8e-3 3 0.992 28 8e-3 3 0.992 28 8e-3 3 0.997 30 0.239 0.956 0.26-0.956 0.26-14 0.01-1 0.166-1 0.912-1 0.144-91 0.012-1 0.142-1 0.708z" fill="#D5AD58" fill-rule="evenodd"/>
</svg>
