<?xml version="1.0" encoding="UTF-8"?>
<svg aria-label="BALAI logo" role="img" viewBox="0 0 1176 1176" xmlns="http://www.w3.org/2000/svg">
<title>BALAI</title>
<path d="m588.5 174.36-1 0.132-1-0.132-0.365-0.365-0.244-1-0.391-0.475-5-4.916-1-0.217-1-0.782-2-0.247-0.363-0.363-0.025-1 2.388-2.391 1-0.218 1-0.917 0.389-0.474v-1l-5.389-5.525-0.39-0.475-0.109-1v-4l0.109-1 0.78-1 0.22-5 0.78-1 0.22-4 0.78-1 0.22-5 0.78-1 0.22-4 0.78-1 0.22-4 0.78-1 0.22-4 0.78-1 0.22-3 0.78-1 0.22-4 0.78-1 0.22-4 0.78-1 0.22-3 0.78-1 0.109-1 2e-3 -3 0.135-1 0.364-0.364 1-0.133 1 0.133 0.364 0.364 0.135 1 2e-3 3 0.109 1 0.78 1 0.22 3 0.78 1 0.22 4 0.78 1 0.22 4 0.78 1 0.22 3 0.78 1 0.22 4 0.78 1 0.22 4 0.78 1 0.22 4 0.78 1 0.22 5 0.78 1 0.22 4 0.78 1 0.22 5 0.78 1 0.109 1v4l-0.109 1-5.779 6v1l0.389 0.474 1 0.917 1 0.218 2.388 2.391-0.025 1-0.363 0.363-2 0.247-1 0.782-1 0.217-5 4.916-0.391 0.475-0.244 1-0.365 0.365zm378 413.81-1 0.202-2 0.121h-21l-1-0.109-1-0.78-2-0.22-1-0.78-2-0.22-1-0.782-1-0.216-1-0.784-1-0.217-2-1.782-1-0.218-3-2.782-1-0.218-3-2.782-1-0.218-2.525-2.391-0.475-0.391-1-0.218-3-2.782-1-0.218-3-2.782-1-0.218-4-3.782-1-0.218-4-3.782-1-0.218-3-2.782-1-0.218-4-3.782-1-0.218-3-2.782-1-0.218-4-3.782-1-0.218-0.475-0.391-4.525-4.391-1-0.218-4-3.782-1-0.218-4-3.782-1-0.218-0.475-0.391-3.525-3.391-1-0.218-4.525-4.391-0.475-0.391-1-0.218-0.475-0.391-4.05-4-0.475-0.391-1-0.218-0.475-0.391-4.05-4-0.475-0.391-1-0.218-0.475-0.391-5.05-5-0.475-0.391-1-0.218-5.525-5.391-0.475-0.391-1-0.218-0.475-0.391-7.05-7-0.475-0.391-1-0.218-0.475-0.391-10.05-10-0.475-0.391-1-0.218-1-0.891-11.525-11.5-0.475-0.391-1-0.218-0.475-0.391-16.05-16-0.475-0.391-1-0.218-0.475-0.391-0.916-1-0.243-1-0.366-0.366-1-0.243-1-0.891-22.5-22.5-0.891-1-0.218-1-0.891-1-20.5-20.525-0.391-0.475-0.218-1-0.391-0.475-10-10.05-0.391-0.475-0.218-1-0.391-0.475-8-8.05-0.391-0.475-0.218-1-0.391-0.475-7-7.05-0.391-0.475-0.218-1-0.391-0.475-5-5.05-0.391-0.475-0.218-1-0.391-0.475-5-5.05-0.391-0.475-0.218-1-0.391-0.475-4-4.05-0.391-0.475-0.218-1-0.391-0.475-4-4.05-0.391-0.475-0.218-1-0.391-0.475-4.391-4.525-0.218-1-3.391-3.525-0.391-0.475-0.218-1-3.782-4-0.218-1-3.782-4-0.218-1-2.782-3-0.218-1-3.782-4-0.218-1-2.782-3-0.218-1-2.782-3-0.218-1-2.782-3-0.218-1-2.782-3-0.218-1-2.782-3-0.218-1-2.782-3-0.218-1-1.782-2-0.218-1-2.782-3-0.218-1-1.782-2-0.218-1-1.782-2-0.218-1-2.782-3-0.218-1-1.782-2-0.218-1-1.782-2-0.218-1-1.782-2-0.218-1-2.782-3-0.218-1-1.782-2-0.218-1-1.782-2-0.218-1-1.782-2-0.218-1-1.782-2-0.217-1-0.784-1-0.217-1-1.782-2-0.218-1-1.782-2-0.218-1-1.782-2-0.217-1-0.784-1-0.217-1-1.782-2-0.217-1-0.784-1-0.217-1-1.782-2-0.217-1-0.784-1-0.217-1-1.391-1.39-1-0.108-1 0.108-1.391 1.39-0.217 1-0.784 1-0.217 1-1.782 2-0.217 1-0.784 1-0.217 1-1.782 2-0.217 1-0.784 1-0.217 1-1.782 2-0.218 1-1.782 2-0.218 1-1.782 2-0.217 1-0.784 1-0.217 1-1.782 2-0.218 1-1.782 2-0.218 1-1.782 2-0.218 1-1.782 2-0.218 1-2.782 3-0.218 1-1.782 2-0.218 1-1.782 2-0.218 1-1.782 2-0.218 1-2.782 3-0.218 1-1.782 2-0.218 1-1.782 2-0.218 1-2.782 3-0.218 1-1.782 2-0.218 1-2.782 3-0.218 1-2.782 3-0.218 1-2.782 3-0.218 1-2.782 3-0.218 1-2.782 3-0.218 1-0.391 0.475-2.391 2.525-0.218 1-3.782 4-0.218 1-2.782 3-0.218 1-3.782 4-0.218 1-3.782 4-0.218 1-0.391 0.475-3.391 3.525-0.218 1-4.391 4.525-0.391 0.475-0.218 1-0.391 0.475-4 4.05-0.391 0.475-0.218 1-0.391 0.475-4 4.05-0.391 0.475-0.218 1-0.391 0.475-5 5.05-0.391 0.475-0.218 1-0.391 0.475-5 5.05-0.391 0.475-0.218 1-0.391 0.475-7 7.05-0.391 0.475-0.218 1-0.391 0.475-8 8.05-0.391 0.475-0.218 1-0.391 0.475-10 10.05-0.391 0.475-0.218 1-0.391 0.475-20.5 20.525-0.891 1-0.218 1-0.891 1-22.5 22.5-1 0.891-1 0.243-0.366 0.366-0.243 1-0.916 1-0.475 0.391-1 0.218-0.475 0.391-16.05 16-0.475 0.391-1 0.218-0.475 0.391-11.525 11.5-1 0.891-1 0.218-0.475 0.391-10.05 10-0.475 0.391-1 0.218-0.475 0.391-7.05 7-0.475 0.391-1 0.218-0.475 0.391-5.525 5.391-1 0.218-0.475 0.391-5.05 5-0.475 0.391-1 0.218-0.475 0.391-4.05 4-0.475 0.391-1 0.218-0.475 0.391-4.05 4-0.475 0.391-1 0.218-0.475 0.391-4.525 4.391-1 0.218-4 3.782-1 0.218-3.525 3.391-0.475 0.391-1 0.218-4 3.782-1 0.218-4.525 4.391-0.475 0.391-1 0.218-4 3.782-1 0.218-3 2.782-1 0.218-4 3.782-1 0.218-3 2.782-1 0.218-0.475 0.391-3.525 3.391-1 0.218-4 3.782-1 0.218-3 2.782-1 0.218-3 2.782-1 0.218-3 2.782-1 0.218-2.525 2.391-0.475 0.391-1 0.218-3 2.782-1 0.218-2 1.782-1 0.217-1 0.784-1 0.216-1 0.782-2 0.22-1 0.78-2 0.22-1 0.78-1 0.109h-21l-2-0.121-1-0.202-0.167-0.176 0.167-0.176 1-0.292 1-0.922 1-0.217 1-0.785 1-0.217 2-1.782 1-0.217 1-0.784 1-0.216 1-0.784 1-0.217 2-1.782 1-0.218 3-2.782 1-0.218 2-1.782 1-0.218 2-1.782 1-0.218 3-2.782 1-0.218 3-2.782 1-0.218 3-2.782 1-0.218 3-2.782 1-0.218 4-3.782 1-0.218 3-2.782 1-0.218 4-3.782 1-0.218 4-3.782 1-0.218 3-2.782 1-0.218 5-4.782 1-0.218 4-3.782 1-0.218 0.475-0.391 4.05-4 0.475-0.391 1-0.218 4.525-4.391 0.475-0.391 1-0.218 0.475-0.391 4.05-4 0.475-0.391 1-0.218 0.475-0.391 5.05-5 0.475-0.391 1-0.218 4.525-4.391 0.475-0.391 1-0.218 0.475-0.391 4.05-4 0.475-0.391 1-0.218 0.475-0.391 6.05-6 0.475-0.391 1-0.218 0.475-0.391 5.05-5 0.475-0.391 1-0.218 0.475-0.391 8.05-8 0.475-0.391 1-0.218 0.475-0.391 9.05-9 0.475-0.391 1-0.218 0.475-0.391 12.05-12 0.475-0.391 1-0.218 1-0.891 57.5-57.5 0.891-1 0.218-1 0.391-0.475 10-10.05 0.391-0.475 0.218-1 0.391-0.475 9-9.05 0.391-0.475 0.218-1 0.391-0.475 6-6.05 0.391-0.475 0.218-1 0.391-0.475 6-6.05 0.391-0.475 0.218-1 0.391-0.475 6-6.05 0.391-0.475 0.218-1 0.391-0.475 4-4.05 0.391-0.475 0.218-1 0.391-0.475 4-4.05 0.391-0.475 0.218-1 0.391-0.475 4.391-4.525 0.218-1 3.782-4 0.218-1 0.391-0.475 4.391-4.525 0.218-1 2.782-3 0.218-1 3.391-3.525 0.391-0.475 0.218-1 3.782-4 0.218-1 2.782-3 0.218-1 3.782-4 0.218-1 2.782-3 0.218-1 2.391-2.525 0.391-0.475 0.218-1 2.782-3 0.218-1 1.782-2 0.218-1 2.782-3 0.218-1 1.782-2 0.218-1 2.782-3 0.218-1 2.782-3 0.218-1 1.782-2 0.218-1 2.782-3 0.218-1 1.782-2 0.218-1 1.782-2 0.218-1 1.782-2 0.218-1 1.782-2 0.218-1 1.782-2 0.218-1 1.782-2 0.218-1 1.782-2 0.218-1 1.782-2 0.218-1 1.782-2 0.218-1 1.782-2 0.218-1 1.782-2 0.218-1 1.782-2 0.218-1 1.782-2 0.217-1 0.784-1 0.217-1 1.782-2 0.218-1 1.782-2 0.217-1 0.784-1 0.217-1 1.782-2 0.218-1 1.782-2 0.217-1 0.784-1 0.217-1 1.781-2 0.109-1-0.109-2-0.782-1-0.216-1-0.784-1-0.217-1-1.782-2-0.218-1-1.782-2-0.218-1-2.782-3-0.218-1-3.391-3.525-0.391-0.475-0.218-1-3.779-4 0.025-1 0.363-0.363 1-0.135 11-1e-3 1 0.109 1.391 1.39 0.218 1 1.782 2 0.218 1 1.782 2 0.218 1 2.782 3 0.217 1 0.8 1 0.371 1 0.221 0.211 1-0.463 1 0.463 0.221-0.211 0.371-1 0.8-1 0.217-1 2.782-3 0.218-1 1.782-2 0.218-1 1.782-2 0.218-1 1.391-1.39 1-0.109 10-1e-3 2 0.137 0.363 0.363 0.025 1-3.779 4-0.218 1-0.391 0.475-3.391 3.525-0.218 1-2.782 3-0.218 1-1.782 2-0.218 1-1.782 2-0.217 1-0.784 1-0.216 1-0.782 1-0.109 2 0.109 1 1.781 2 0.217 1 0.784 1 0.217 1 1.782 2 0.218 1 1.782 2 0.217 1 0.784 1 0.217 1 1.782 2 0.218 1 1.782 2 0.217 1 0.784 1 0.217 1 1.782 2 0.218 1 1.782 2 0.218 1 1.782 2 0.218 1 1.782 2 0.218 1 1.782 2 0.218 1 1.782 2 0.218 1 1.782 2 0.218 1 1.782 2 0.218 1 1.782 2 0.218 1 1.782 2 0.218 1 1.782 2 0.218 1 1.782 2 0.218 1 1.782 2 0.218 1 2.782 3 0.218 1 1.782 2 0.218 1 2.782 3 0.218 1 2.782 3 0.218 1 1.782 2 0.218 1 2.782 3 0.218 1 1.782 2 0.218 1 2.391 2.525 0.391 0.475 0.218 1 2.782 3 0.218 1 2.782 3 0.218 1 3.782 4 0.218 1 2.782 3 0.218 1 3.391 3.525 0.391 0.475 0.218 1 3.782 4 0.218 1 2.782 3 0.218 1 4.391 4.525 0.391 0.475 0.218 1 3.782 4 0.218 1 4.391 4.525 0.391 0.475 0.218 1 0.391 0.475 4 4.05 0.391 0.475 0.218 1 0.391 0.475 4 4.05 0.391 0.475 0.218 1 0.391 0.475 6 6.05 0.391 0.475 0.218 1 0.391 0.475 6 6.05 0.391 0.475 0.218 1 0.391 0.475 6 6.05 0.391 0.475 0.218 1 0.391 0.475 9 9.05 0.391 0.475 0.218 1 0.391 0.475 10 10.05 0.391 0.475 0.218 1 0.891 1 57.5 57.5 1 0.891 1 0.218 0.475 0.391 11.525 11.5 1 0.891 1 0.218 0.475 0.391 9.05 9 0.475 0.391 1 0.218 0.475 0.391 8.05 8 0.475 0.391 1 0.218 5.525 5.391 0.475 0.391 1 0.218 0.475 0.391 6.05 6 0.475 0.391 1 0.218 0.475 0.391 4.05 4 0.475 0.391 1 0.218 0.475 0.391 4.05 4 0.475 0.391 1 0.218 0.475 0.391 5.05 5 0.475 0.391 1 0.218 0.475 0.391 4.05 4 0.475 0.391 1 0.218 0.475 0.391 4.05 4 0.475 0.391 1 0.218 0.475 0.391 4.525 4.391 1 0.218 4 3.782 1 0.218 0.475 0.391 4.525 4.391 1 0.218 3 2.782 1 0.218 4 3.782 1 0.218 0.475 0.391 3.525 3.391 1 0.218 3 2.782 1 0.218 4 3.782 1 0.218 3 2.782 1 0.218 3 2.782 1 0.218 3 2.782 1 0.218 3 2.782 1 0.218 2 1.782 1 0.218 2 1.782 1 0.218 3 2.782 1 0.218 2 1.782 1 0.217 1 0.784 1 0.216 1 0.784 1 0.217 2 1.782 1 0.217 1 0.785 1 0.217 1 0.922 1 0.292 0.167 0.176-0.167 0.176zm-656 276.21-1 0.109h-49l-1-0.109-1-0.78-1-0.109-43-3e-3 -1-0.109-1-0.919-1-0.118-12-3e-3 -1-0.174-0.166-0.175 0.166-0.175 1-0.174 12-2e-3 2-0.129 5-0.02 1-0.108 1-0.782 1-0.109 20-2e-3 1-0.109 1-0.78 1-0.109 20-2e-3 1-0.109 1-0.78 1-0.109 27-2e-3 1-0.109 1-0.78 1-0.109 14-2e-3 1-0.135 0.364-0.364 0.136-2-0.021-283-0.261-1-0.218-0.208-1 0.711-3 2.888-1 0.218-3 2.782-1 0.218-2 1.782-1 0.217-1 0.784-1 0.216-1 0.782-2 0.22-1 0.78-6 0.22-1 0.78-1 0.109h-8l-1-0.109-1-0.78-4-0.232-1-0.202-0.167-0.176 0.167-0.176 1-0.292 1-0.922 1-0.218 3-2.783 1-0.218 2-1.782 1-0.218 2.525-2.391 0.475-0.391 1-0.218 3-2.782 1-0.218 4-3.782 1-0.218 4-3.782 1-0.218 4.525-4.391 0.475-0.391 1-0.218 4-3.782 1-0.218 4-3.782 1-0.218 4.525-4.391 0.475-0.391 1-0.218 0.475-0.391 4.05-4 0.475-0.391 1-0.218 0.475-0.391 4.05-4 0.475-0.391 1-0.218 0.475-0.391 5.05-5 0.475-0.391 1-0.218 0.475-0.391 6.05-6 0.475-0.391 1-0.218 0.475-0.391 5.05-5 0.475-0.391 1-0.218 0.475-0.391 7.05-7 0.475-0.391 1-0.218 0.475-0.391 9.05-9 0.475-0.391 1-0.218 0.475-0.391 12.05-12 0.475-0.391 1-0.218 0.475-0.391 20.525-20.5 1-0.891 1-0.218 1-0.891 29-28.997 1-0.711 0.218 0.208 0.261 1 0.021 1-1e-3 60-0.109 1-10.915 11-0.475 0.391-1 0.218-3 2.781-1 0.109-10 2e-3 -1 0.135-0.364 0.364-0.136 2 1e-3 6 0.109 1 0.779 1v1l-0.389 0.474-3.525 3.526-0.475 0.391-1 0.218-0.475 0.391-5.525 5.39-1 0.109-6 2e-3 -1 0.109-1 0.78-3 0.246-0.365 0.364-0.134 1v3l0.109 1 1.78 2 0.108 1-0.108 1-1.39 1.391-1 0.218-0.475 0.391-8.525 8.39-1 0.109-3 2e-3 -1 0.135-0.364 0.364-0.246 4-2.39 2.391-1 0.218-0.475 0.391-3.525 3.497-1 0.711-0.218-0.208-0.261-1-0.022-9-0.135-1-0.364-0.364-1-0.135h-3l-1 0.109-1 0.782-1 0.217-0.475 0.391-0.915 1-0.109 1-2e-3 16-0.109 1-1.39 1.391-1 0.218-3 2.779-1-0.025-0.363-0.363-0.135-1-3e-3 -3-0.109-1-0.78-1-0.108-1 0.108-1 0.779-1v-1l-0.779-1-0.109-1-3e-3 -10-0.135-1-0.363-0.363-1-0.025-0.473 0.388-3.917 4-0.109 1 0.019 14 0.259 1 0.221 0.211 1-0.422 0.221 0.211 0.259 1 0.13 3 0.78 1 0.108 1-0.108 1-0.782 1-0.217 1-0.916 1-0.475 0.391-1 0.218-0.475 0.391-6.525 6.388-1-0.025-0.363-0.363-0.135-1-1e-3 -34 0.109-1 6.915-7 0.475-0.391 1-0.218 3-2.78h1l1 0.779 1 0.109h3l1-0.109 1-0.78 1-0.109 9-2e-3 1-0.109 1-0.915 0.39-0.475 0.109-1 1e-3 -22-0.021-1-0.261-1-0.218-0.208-1 0.711-2 1.888-1 0.218-0.475 0.391-7.05 7-0.475 0.391-1 0.218-4 3.782-1 0.218-0.475 0.391-5.05 5-0.475 0.391-1 0.218-0.475 0.391-6.05 6-0.475 0.391-1 0.218-4 3.782-1 0.218-4 3.782-1 0.243-0.366 0.366-0.241 1-0.639 1 0.638 1 0.107 1 1e-3 54 0.021 1 0.261 1 0.218 0.208 1-0.711 5-4.888 1-0.218 4-3.782 1-0.218 0.475-0.391 6.05-6 0.475-0.391 1-0.218 0.475-0.391 5.05-5 0.475-0.391 1-0.218 0.475-0.391 6.05-6 0.475-0.391 1-0.218 0.475-0.391 6.05-6 0.475-0.391 1-0.218 0.475-0.391 7.05-7 0.475-0.391 1-0.218 0.475-0.391 8.05-8 0.475-0.391 1-0.218 0.475-0.391 10.05-10 0.475-0.391 1-0.218 0.475-0.391 9.05-9 0.475-0.391 1-0.218 0.475-0.391 14.05-14 0.475-0.391 1-0.218 1-0.891 18.525-18.5 0.475-0.391 1-0.218 1-0.891 44.5-44.5 0.891-1 0.218-1 0.391-0.475 13-13.05 0.391-0.475 0.218-1 0.391-0.475 7-7.05 0.391-0.475 0.218-1 0.391-0.475 5-5.05 0.391-0.475 0.218-1 0.391-0.475 5-5.05 0.391-0.475 0.218-1 4.391-4.525 0.391-0.475 0.218-1 3.782-4 0.218-1 4.391-4.525 0.391-0.475 0.218-1 3.782-4 0.218-1 3.782-4 0.218-1 2.782-3 0.218-1 2.782-3 0.218-1 2.391-2.525 0.391-0.475 0.218-1 2.781-3 0.109-1 1e-3 -27-0.136-2-0.364-0.364-1-0.135h-6l-1 0.109-4 3.915-0.391 0.475-0.218 1-1.391 1.498-1 0.747-1-0.772-0.39-0.473-0.109-1v-11l0.109-1 1.781-2 0.218-1 0.391-0.475 4.392-4.525 0.219-1 0.389-0.472 1-0.736 0.218 0.208 0.261 1 0.022 6 0.135 1 0.364 0.364 1 0.135h5l1-0.135 0.364-0.364 0.135-1 1e-3 -28-0.122-2-0.202-1-0.176-0.167-0.176 0.167-0.293 1-2.922 3-0.218 1-1.782 2-0.218 1-1.782 2-0.218 1-3.782 4-0.218 1-2.782 3-0.218 1-2.782 3-0.218 1-3.782 4-0.218 1-2.782 3-0.218 1-3.782 4-0.218 1-2.782 3-0.218 1-3.782 4-0.218 1-2.391 2.525-0.391 0.475-0.218 1-2.781 3-0.109 1v18l0.135 1 0.364 0.364 1 0.135h2l1-0.109 1-0.78 1-0.109 3-2e-3 1-0.135 0.364-0.364 0.246-2 0.915-1 0.475-0.391 1-0.217 1-0.782 1-0.108 1 0.134 0.364 0.364 0.246 4 1.39 1.389h1l3-2.914 0.391-0.475 0.218-1 2.781-3 0.11-2-0.11-2-1.39-1.39-1-0.109h-4l-1 0.134-0.366 0.365-0.268 1-0.366 0.365-1 0.134h-6l-1-0.135-0.364-0.364-0.135-1v-10l0.109-1 2.781-3 0.218-1 0.391-0.475 4-4.022 1-0.711 0.218 0.208 0.261 1 0.041 10 0.262 1 0.218 0.208 1-0.601 1-0.106 9-2e-3 1-0.109 2-1.887 1-0.711 0.218 0.208 0.261 1 0.021 1-1e-3 15-0.109 1-3.781 4-0.218 1-0.391 0.475-4 4.05-0.391 0.475-0.218 1-0.891 1-2.5 2.39-2 0.245-0.365 0.365-0.243 1-0.784 1-0.217 1-1.391 1.39-1 0.109-5-1e-3 -1-0.135-0.363-0.363-0.026-1 0.779-1 0.109-1v-3l-0.109-1-1.39-1.389h-1l-1 0.781-1 0.217-3 2.781-2 0.246-0.364 0.364-0.136 2 1e-3 8 0.135 1 0.364 0.364 1 0.134 1-0.108 1-0.78 1-0.109 6 1e-3 1 0.135 0.363 0.363 0.025 1-4.388 4.525-0.391 0.475-0.218 1-2.391 2.39-1 0.109-4 2e-3 -1 0.135-0.364 0.364-0.135 1-2e-3 5-0.109 1-0.782 1-0.217 1-9.391 9.525-0.392 0.475-0.219 1-0.389 0.472-1 0.736-0.218-0.208-0.261-1-0.02-9 0.134-1 0.365-0.365 1-0.244 2.39-2.391 0.22-4 0.779-1v-1l-1.389-1.39-4-0.245-0.366-0.365-0.27-1-0.364-0.363-1-0.025-2 1.778-1 0.109-22 2e-3 -1 0.109-1.391 1.39-0.218 1-0.391 0.475-12 12.05-0.39 0.475-0.109 1-1e-3 11 2e-3 24 0.135 1 0.363 0.363 1 0.025 0.473-0.388 5.917-6 0.109-1 2e-3 -6 0.135-1 0.364-0.364 1-0.135 6-2e-3 1-0.109 9.39-9.39 0.109-1 1e-3 -6-0.11-2-0.39-0.473-1-0.772-1 0.637-1 0.106-1-0.108-1-0.779h-1l-1 0.781-1 0.243-0.365 0.365-0.135 2 0.02 4 0.262 1 0.218 0.208 1-0.599 1 0.028 0.363 0.363 0.134 1-0.107 1-0.39 0.475-1 0.915-1 0.109h-8l-1-0.135-0.364-0.364-0.135-1v-10l0.109-1 8.39-8.39 1-0.109h10l1 0.109 1 0.78 1 0.108 1-0.108 1-0.779 1 0.026 0.363 0.363 0.137 2-1e-3 20-0.109 1-22.89 23-0.891 1-0.243 1-0.366 0.366-1 0.243-0.475 0.391-7.025 7-0.891 1-0.218 1-0.391 0.475-1 0.916-1 0.218-0.475 0.391-0.916 1-0.243 1-0.366 0.366-1 0.243-1 0.916-0.393 0.475-0.243 1-0.364 0.363-1-1e-3 -0.363-0.362-0.135-1-1e-3 -62 0.109-1 12.39-12.525 0.391-0.475 0.218-1 0.391-0.475 9-9.05 0.391-0.475 0.218-1 0.391-0.475 8-8.05 0.391-0.475 0.218-1 0.391-0.475 5-5.05 0.391-0.475 0.218-1 4.782-5 0.218-1 3.782-4 0.218-1 0.391-0.475 4-4.05 0.391-0.475 0.218-1 0.391-0.475 4.391-4.525 0.218-1 3.782-4 0.218-1 3.782-4 0.218-1 0.391-0.475 3.391-3.525 0.218-1 2.782-3 0.218-1 3.782-4 0.218-1 3.782-4 0.218-1 0.391-0.475 3.391-3.525 0.218-1 2.782-3 0.218-1 2.782-3 0.218-1 2.782-3 0.218-1 2.782-3 0.218-1 2.391-2.525 0.391-0.475 0.218-1 2.782-3 0.218-1 1.782-2 0.218-1 2.782-3 0.218-1 1.782-2 0.218-1 2.782-3 0.218-1 1.782-2 0.218-1 1.782-2 0.218-1 1.391-1.497 1-0.711 0.218 0.208 0.261 1 0.021 1v100l-0.11 2-1.781 2-0.218 1-2.782 3-0.218 1-2.782 3-0.218 1-1.782 2-0.218 1-2.782 3-0.218 1-3.782 4-0.218 1-2.391 2.525-0.391 0.475-0.218 1-2.782 3-0.218 1-3.782 4-0.218 1-3.782 4-0.218 1-3.782 4-0.218 1-0.391 0.475-4.391 4.525-0.218 1-0.391 0.475-5 5.05-0.391 0.475-0.218 1-0.391 0.475-4 4.05-0.391 0.475-0.218 1-0.391 0.475-7 7.05-0.391 0.475-0.218 1-0.391 0.475-13 13.05-0.391 0.475-0.218 1-0.891 1-37.5 37.5-1 0.891-1 0.218-0.475 0.391-10.915 11-0.11 2v251l-0.136 2-0.364 0.364-2 0.246-1 0.782-1 0.216-1 0.784-1 0.216-1 0.781-1-0.026-0.363-0.363-0.137-2v-245l-0.021-1-0.261-1-0.218-0.208-1 0.711-13.525 13.497-0.475 0.391-1 0.218-1 0.891-11.525 11.5-0.475 0.391-1 0.218-7.525 7.391-0.475 0.391-1 0.218-0.475 0.391-8.05 8-0.475 0.391-1 0.218-0.475 0.391-7.05 7-0.475 0.391-1 0.218-0.475 0.391-4.915 5-0.11 2-1e-3 218-0.109 1-1.915 2-0.475 0.391-1 0.218-3 2.782-1 0.217-1 0.781-1-0.026-0.363-0.363-0.135-1-1e-3 -5 0.109-1 0.78-1 0.11-2-0.11-2-0.78-1-0.109-1v-93l0.109-1 0.78-1 0.109-1 1e-3 -3-0.11-2-0.78-1-0.109-1v-84l0.109-1 0.78-1 0.109-1v-5l-0.109-1-0.78-1-0.109-1-0.022-5-0.261-1-0.218-0.208-1 0.711-5 4.888-1 0.218-0.475 0.391-5.05 5-0.475 0.391-1 0.218-0.475 0.391-5.05 5-0.475 0.391-1 0.218-0.475 0.391-4.05 4-0.475 0.391-1 0.218-0.475 0.391-5.05 5-0.475 0.391-1 0.218-0.475 0.391-3.915 4-0.11 2-1e-3 218-0.109 1-0.39 0.475-10 10.05-0.391 0.475-0.218 1-3.391 3.39zm605 0-1 0.109-48 1e-3 -2-0.11-3.391-3.39-0.218-1-0.391-0.475-10.39-10.525-0.11-2v-217l-0.11-2-3.915-4-0.475-0.391-1-0.218-0.475-0.391-5.05-5-0.475-0.391-1-0.218-0.475-0.391-4.525-4.391-1-0.218-0.475-0.391-5.05-5-0.475-0.391-1-0.218-0.475-0.391-5.05-5-0.475-0.391-1-0.218-0.475-0.391-4.525-4.497-1-0.711-0.218 0.208-0.261 1-0.022 5-0.109 1-0.78 1-0.109 1v5l0.109 1 0.78 1 0.109 1v84l-0.109 1-0.78 1-0.11 2 1e-3 3 0.109 1 0.78 1 0.109 1v93l-0.109 1-0.78 1-0.109 1 0.109 3 0.78 1 0.109 1-1e-3 5-0.135 1-0.363 0.363-1 0.026-1-0.781-1-0.217-3-2.782-1-0.218-0.475-0.391-1.915-2-0.11-2v-217l-0.11-2-4.915-5-0.475-0.391-1-0.218-0.475-0.391-7.05-7-0.475-0.391-1-0.218-0.475-0.391-8.05-8-0.475-0.391-1-0.218-7.525-7.391-0.475-0.391-1-0.218-0.475-0.391-11.525-11.5-1-0.891-1-0.218-0.475-0.391-13.525-13.497-1-0.711-0.218 0.208-0.261 1-0.021 1v245l-0.137 2-0.363 0.363-1 0.026-1-0.781-1-0.216-1-0.784-1-0.216-1-0.782-2-0.246-0.364-0.364-0.136-2v-251l-0.11-2-10.915-11-0.475-0.391-1-0.218-1-0.891-37.5-37.5-0.891-1-0.218-1-0.391-0.475-13-13.05-0.391-0.475-0.218-1-0.391-0.475-7-7.05-0.391-0.475-0.218-1-0.391-0.475-4-4.05-0.391-0.475-0.218-1-0.391-0.475-5-5.05-0.391-0.475-0.218-1-4.391-4.525-0.391-0.475-0.218-1-3.782-4-0.218-1-3.782-4-0.218-1-3.782-4-0.218-1-2.782-3-0.218-1-2.782-3-0.218-1-3.782-4-0.218-1-2.782-3-0.218-1-1.782-2-0.218-1-2.782-3-0.218-1-2.782-3-0.218-1-1.781-2-0.11-2v-100l0.021-1 0.261-1 0.218-0.208 1 0.711 1.391 1.497 0.218 1 1.782 2 0.218 1 1.782 2 0.218 1 2.782 3 0.218 1 1.782 2 0.218 1 2.782 3 0.218 1 1.782 2 0.218 1 2.782 3 0.218 1 2.782 3 0.218 1 2.782 3 0.218 1 2.782 3 0.218 1 2.391 2.525 0.391 0.475 0.218 1 2.782 3 0.218 1 3.782 4 0.218 1 3.782 4 0.218 1 0.391 0.475 3.391 3.525 0.218 1 2.782 3 0.218 1 3.782 4 0.218 1 3.782 4 0.218 1 0.391 0.475 3.391 3.525 0.218 1 4.391 4.525 0.391 0.475 0.218 1 0.391 0.475 4 4.05 0.391 0.475 0.218 1 3.782 4 0.218 1 0.391 0.475 4.391 4.525 0.218 1 0.391 0.475 5 5.05 0.391 0.475 0.218 1 0.391 0.475 8 8.05 0.391 0.475 0.218 1 0.391 0.475 9 9.05 0.391 0.475 0.218 1 0.391 0.475 12.39 12.525 0.109 1-1e-3 62-0.135 1-0.363 0.362-1 1e-3 -0.364-0.363-0.243-1-0.393-0.475-1-0.916-1-0.243-0.366-0.366-0.243-1-0.916-1-0.475-0.391-1-0.218-1-0.916-0.391-0.475-0.218-1-0.891-1-7.025-7-0.475-0.391-1-0.243-0.366-0.366-0.243-1-0.891-1-22.89-23-0.109-1-1e-3 -20 0.137-2 0.363-0.363 1-0.026 1 0.779 1 0.108 1-0.108 1-0.78 1-0.109h10l1 0.109 8.39 8.39 0.109 1v10l-0.135 1-0.364 0.364-1 0.135h-8l-1-0.109-1-0.915-0.39-0.475-0.107-1 0.134-1 0.363-0.363 1-0.028 1 0.599 0.218-0.208 0.262-1 0.02-2-1e-3 -3-0.134-1-0.365-0.365-1-0.243-1-0.781h-1l-1 0.779-1 0.108-1-0.106-1-0.637-1 0.772-0.39 0.473-0.11 2 1e-3 6 0.109 1 9.39 9.39 1 0.109 6 2e-3 1 0.135 0.364 0.364 0.135 1 2e-3 6 0.109 1 5.917 6 0.473 0.388 1-0.025 0.363-0.363 0.135-1 2e-3 -2-1e-3 -33-0.109-1-0.39-0.475-12-12.05-0.391-0.475-0.218-1-1.391-1.39-1-0.109-22-2e-3 -1-0.109-2-1.778-1 0.025-0.364 0.363-0.27 1-0.366 0.365-4 0.245-1.389 1.39v1l0.779 1 0.22 4 2.39 2.391 1 0.244 0.365 0.365 0.134 1-0.02 9-0.261 1-0.218 0.208-1-0.736-0.389-0.472-0.219-1-0.392-0.475-9.391-9.525-0.217-1-0.782-1-0.109-1-2e-3 -5-0.135-1-0.364-0.364-1-0.135-4-2e-3 -1-0.109-2.391-2.39-0.218-1-0.391-0.475-4.388-4.525 0.025-1 0.363-0.363 1-0.135 6-1e-3 1 0.109 1 0.78 1 0.108 1-0.134 0.364-0.364 0.136-2-1e-3 -8-0.135-1-0.364-0.364-2-0.246-3-2.781-1-0.217-1-0.781h-1l-1.39 1.389-0.109 1v3l0.109 1 0.779 1-0.026 1-0.363 0.363-1 0.135-5 1e-3 -1-0.109-1.391-1.39-0.217-1-0.784-1-0.243-1-0.365-0.365-2-0.245-2.5-2.39-0.891-1-0.218-1-0.391-0.475-4-4.05-0.391-0.475-0.218-1-3.781-4-0.109-1-1e-3 -15 0.021-1 0.261-1 0.218-0.208 1 0.711 2 1.887 1 0.109 9 2e-3 1 0.106 1 0.601 0.218-0.208 0.262-1 0.041-10 0.261-1 0.218-0.208 1 0.711 4 4.022 0.391 0.475 0.218 1 2.781 3 0.109 1v10l-0.135 1-0.364 0.364-1 0.135h-6l-1-0.134-0.366-0.365-0.268-1-0.366-0.365-1-0.134h-4l-1 0.109-1.39 1.39-0.11 2 0.11 2 2.781 3 0.218 1 0.391 0.475 3 2.914h1l1.39-1.389 0.246-4 0.364-0.364 1-0.134 1 0.108 1 0.782 1 0.217 0.475 0.391 0.915 1 0.246 2 0.364 0.364 1 0.135 3 2e-3 1 0.109 1 0.78 1 0.109h2l1-0.135 0.364-0.364 0.135-1v-18l-0.109-1-2.781-3-0.218-1-0.391-0.475-2.391-2.525-0.218-1-3.782-4-0.218-1-2.782-3-0.218-1-3.782-4-0.218-1-2.782-3-0.218-1-3.782-4-0.218-1-2.782-3-0.218-1-2.782-3-0.218-1-3.782-4-0.218-1-1.782-2-0.218-1-1.782-2-0.218-1-2.922-3-0.293-1-0.176-0.167-0.176 0.167-0.202 1-0.122 2 1e-3 28 0.135 1 0.364 0.364 1 0.135h5l1-0.135 0.364-0.364 0.135-1 0.022-6 0.261-1 0.218-0.208 1 0.736 0.389 0.472 0.219 1 4.392 4.525 0.391 0.475 0.218 1 1.781 2 0.109 1v11l-0.109 1-0.39 0.473-1 0.772-1-0.747-1.391-1.498-0.218-1-0.391-0.475-4-3.915-1-0.109h-6l-1 0.135-0.364 0.364-0.136 2 1e-3 27 0.109 1 2.781 3 0.218 1 0.391 0.475 2.391 2.525 0.218 1 2.782 3 0.218 1 2.782 3 0.218 1 3.782 4 0.218 1 3.782 4 0.218 1 0.391 0.475 4.391 4.525 0.218 1 3.782 4 0.218 1 0.391 0.475 4.391 4.525 0.218 1 0.391 0.475 5 5.05 0.391 0.475 0.218 1 0.391 0.475 5 5.05 0.391 0.475 0.218 1 0.391 0.475 7 7.05 0.391 0.475 0.218 1 0.391 0.475 13 13.05 0.391 0.475 0.218 1 0.891 1 44.5 44.5 1 0.891 1 0.218 0.475 0.391 18.525 18.5 1 0.891 1 0.218 0.475 0.391 14.05 14 0.475 0.391 1 0.218 0.475 0.391 9.05 9 0.475 0.391 1 0.218 0.475 0.391 10.05 10 0.475 0.391 1 0.218 0.475 0.391 8.05 8 0.475 0.391 1 0.218 0.475 0.391 7.05 7 0.475 0.391 1 0.218 0.475 0.391 6.05 6 0.475 0.391 1 0.218 0.475 0.391 6.05 6 0.475 0.391 1 0.218 0.475 0.391 5.05 5 0.475 0.391 1 0.218 0.475 0.391 6.05 6 0.475 0.391 1 0.218 4 3.782 1 0.218 5 4.888 1 0.711 0.218-0.208 0.261-1 0.021-1 1e-3 -54 0.107-1 0.638-1-0.639-1-0.241-1-0.366-0.366-1-0.243-4-3.782-1-0.218-4-3.782-1-0.218-0.475-0.391-6.05-6-0.475-0.391-1-0.218-0.475-0.391-5.05-5-0.475-0.391-1-0.218-4-3.782-1-0.218-0.475-0.391-7.05-7-0.475-0.391-1-0.218-2-1.888-1-0.711-0.218 0.208-0.261 1-0.021 1 1e-3 22 0.109 1 0.39 0.475 1 0.915 1 0.109 9 2e-3 1 0.109 1 0.78 1 0.109h3l1-0.109 1-0.779h1l3 2.78 1 0.218 0.475 0.391 6.915 7 0.109 1-1e-3 34-0.135 1-0.363 0.363-1 0.025-6.525-6.388-0.475-0.391-1-0.218-0.475-0.391-0.916-1-0.217-1-0.782-1-0.108-1 0.108-1 0.78-1 0.13-3 0.259-1 0.221-0.211 1 0.422 0.221-0.211 0.259-1 0.019-14-0.109-1-3.917-4-0.473-0.388-1 0.025-0.363 0.363-0.135 1-3e-3 10-0.109 1-0.779 1v1l0.779 1 0.108 1-0.108 1-0.78 1-0.109 1-3e-3 3-0.135 1-0.363 0.363-1 0.025-3-2.779-1-0.218-1.39-1.391-0.109-1-2e-3 -16-0.109-1-0.915-1-0.475-0.391-1-0.217-1-0.782-1-0.109h-3l-1 0.135-0.364 0.364-0.135 1-0.022 9-0.261 1-0.218 0.208-1-0.711-3.525-3.497-0.475-0.391-1-0.218-2.39-2.391-0.246-4-0.364-0.364-1-0.135-3-2e-3 -1-0.109-8.525-8.39-0.475-0.391-1-0.218-1.39-1.391-0.108-1 0.108-1 1.78-2 0.109-1v-3l-0.134-1-0.365-0.364-3-0.246-1-0.78-1-0.109-6-2e-3 -1-0.109-5.525-5.39-0.475-0.391-1-0.218-0.475-0.391-3.525-3.526-0.389-0.474v-1l0.779-1 0.11-2-1e-3 -6-0.135-1-0.364-0.364-1-0.135-10-2e-3 -1-0.109-3-2.781-1-0.218-0.475-0.391-10.915-11-0.109-1-1e-3 -60 0.021-1 0.261-1 0.218-0.208 1 0.711 29 28.997 1 0.891 1 0.218 1 0.891 20.525 20.5 0.475 0.391 1 0.218 0.475 0.391 12.05 12 0.475 0.391 1 0.218 0.475 0.391 9.05 9 0.475 0.391 1 0.218 0.475 0.391 7.05 7 0.475 0.391 1 0.218 0.475 0.391 5.05 5 0.475 0.391 1 0.218 0.475 0.391 6.05 6 0.475 0.391 1 0.218 0.475 0.391 5.05 5 0.475 0.391 1 0.218 0.475 0.391 4.05 4 0.475 0.391 1 0.218 0.475 0.391 4.05 4 0.475 0.391 1 0.218 0.475 0.391 4.525 4.391 1 0.218 4 3.782 1 0.218 4 3.782 1 0.218 0.475 0.391 4.525 4.391 1 0.218 4 3.782 1 0.218 4 3.782 1 0.218 3 2.782 1 0.218 0.475 0.391 2.525 2.391 1 0.218 2 1.782 1 0.218 3 2.783 1 0.218 1 0.922 1 0.292 0.167 0.176-0.167 0.176-1 0.202-4 0.232-1 0.78-1 0.109h-8l-1-0.109-1-0.78-6-0.22-1-0.78-2-0.22-1-0.782-1-0.216-1-0.784-1-0.217-2-1.782-1-0.218-3-2.782-1-0.218-3-2.888-1-0.711-0.218 0.208-0.261 1-0.021 283 0.136 2 0.364 0.364 1 0.135 14 2e-3 1 0.109 1 0.78 1 0.109 27 2e-3 1 0.109 1 0.78 1 0.109 20 2e-3 1 0.109 1 0.78 1 0.109 20 2e-3 1 0.109 1 0.782 1 0.108 5 0.02 2 0.129 12 2e-3 1 0.174 0.166 0.175-0.166 0.175-1 0.174-12 3e-3 -1 0.118-1 0.919-1 0.109-43 3e-3 -1 0.109-1 0.78zm-411.53-462.39 1.527-1.39 1-0.109 3-2e-3 1-0.135 0.364-0.364 0.136-2-1e-3 -8-0.135-1-0.364-0.364-2-0.135-1 0.106-1 0.601-0.218-0.208-0.262-1-0.019-1 0.109-1 0.782-1 0.216-1 0.784-1 0.242-1 0.366-0.366 1-0.243 2.39-2.391 0.109-1v-4l-0.107-1-0.654-1 0.47-1-0.208-0.218-1-0.145-1 0.889-0.39 0.474-0.219 1-0.391 0.475-5 5.05-0.391 0.475-0.218 1-0.391 0.475-5 5.05-0.391 0.475-0.218 1-0.391 0.475-5 5.05-0.391 0.475-0.218 1-0.391 0.475-4.388 4.525 0.025 1 0.363 0.363 1 0.135 13 3e-3 1 0.134 0.366 0.365 0.27 1 0.364 0.363 1 0.025 0.473-0.388zm168.89 0 0.27-1 0.366-0.365 1-0.134 13-3e-3 1-0.135 0.363-0.363 0.025-1-4.388-4.525-0.391-0.475-0.218-1-0.391-0.475-5-5.05-0.391-0.475-0.218-1-0.391-0.475-5-5.05-0.391-0.475-0.218-1-0.391-0.475-5-5.05-0.391-0.475-0.219-1-0.39-0.474-1-0.889-1 0.145-0.208 0.218 0.47 1-0.654 1-0.107 1v4l0.109 1 2.39 2.391 1 0.243 0.366 0.366 0.242 1 0.784 1 0.216 1 0.782 1 0.109 1-0.019 1-0.262 1-0.218 0.208-1-0.601-1-0.106-2 0.135-0.364 0.364-0.136 2 1e-3 8 0.135 1 0.364 0.364 1 0.135 3 2e-3 1 0.109 2 1.778 1-0.025 0.364-0.363zm-84.364 102.36-1 0.132-1-0.132-0.365-0.365-0.244-1-1.782-2-0.217-1-0.784-1-0.217-1-1.782-2-0.218-1-1.782-2-0.217-1-0.784-1-0.217-1-1.782-2-0.218-1-1.782-2-0.218-1-1.782-2-0.217-1-0.784-1-0.217-1-1.782-2-0.217-1-0.784-1-0.217-1-1.782-2-0.217-1-0.784-1-0.217-1-1.782-2-0.218-1-1.78-2v-1l1.78-2 0.217-1 0.784-1 0.217-1 1.782-2 0.218-1 1.782-2 0.217-1 0.784-1 0.217-1 1.782-2 0.217-1 0.784-1 0.217-1 1.782-2 0.218-1 1.782-2 0.217-1 0.784-1 0.217-1 1.782-2 0.217-1 0.784-1 0.216-1 0.784-1 0.217-1 1.782-2 0.218-1 1.782-2 0.217-1 0.784-1 0.243-1 0.365-0.365 1-0.132 1 0.132 0.365 0.365 0.243 1 0.784 1 0.217 1 1.782 2 0.218 1 1.782 2 0.217 1 0.784 1 0.216 1 0.784 1 0.217 1 1.782 2 0.217 1 0.784 1 0.217 1 1.782 2 0.218 1 1.782 2 0.217 1 0.784 1 0.217 1 1.782 2 0.217 1 0.784 1 0.217 1 1.782 2 0.218 1 1.782 2 0.217 1 0.784 1 0.217 1 1.78 2v1l-1.78 2-0.218 1-1.782 2-0.217 1-0.784 1-0.217 1-1.782 2-0.217 1-0.784 1-0.217 1-1.782 2-0.217 1-0.784 1-0.217 1-1.782 2-0.218 1-1.782 2-0.218 1-1.782 2-0.217 1-0.784 1-0.217 1-1.782 2-0.218 1-1.782 2-0.217 1-0.784 1-0.217 1-1.782 2-0.244 1-0.365 0.365zm0.221-18.365 0.371-1 0.8-1 0.217-1 1.782-2 0.217-1 0.784-1 0.217-1 1.782-2 0.217-1 0.784-1 0.216-1 0.784-1 0.217-1 1.782-2 0.218-1 1.782-2 0.217-1 0.781-1v-1l-1.78-2-0.217-1-0.784-1-0.217-1-1.782-2-0.217-1-0.784-1-0.217-1-1.782-2-0.217-1-0.784-1-0.216-1-0.784-1-0.217-1-1.782-2-0.217-1-0.8-1-0.371-1-0.221-0.211-1 0.463-1-0.463-0.221 0.211-0.371 1-0.8 1-0.217 1-1.782 2-0.217 1-0.784 1-0.216 1-0.784 1-0.217 1-1.782 2-0.217 1-0.784 1-0.217 1-1.782 2-0.217 1-0.784 1-0.217 1-1.78 2v1l0.781 1 0.217 1 1.782 2 0.218 1 1.782 2 0.217 1 0.784 1 0.216 1 0.784 1 0.217 1 1.782 2 0.217 1 0.784 1 0.217 1 1.782 2 0.217 1 0.8 1 0.371 1 0.221 0.211 1-0.463 1 0.463 0.221-0.211zm-203.86 55 0.244-1 2.782-3 0.218-1 1.782-2 0.217-1 0.782-1-0.027-1-0.363-0.363-4-0.273-0.364-0.364-0.135-1v-7l0.109-1 0.39-0.475 1-0.916 1-0.218 2-1.781 1-0.109h4l1 0.135 0.364 0.364 0.135 1 0.021 2 0.262 1 0.218 0.208 1-0.601 4-0.108 1-0.134 0.366-0.365 0.268-1 0.366-0.366 1-0.243 1.39-1.391 0.109-1v-7l-0.135-1-0.364-0.364-1-0.135-14-0.022-1-0.261-0.208-0.218 0.711-1 5.997-6 1.5-1.39 1-0.109 6-2e-3 1-0.135 0.364-0.364 0.135-1 2e-3 -5 0.109-1 14.915-15 0.475-0.391 1-0.218 1.531-1.391 0.293-1 0.176-0.167 0.176 0.167 0.304 2 0.019 12-0.135 1-0.364 0.364-1 0.135-7 2e-3 -1 0.135-0.364 0.364-0.136 2 1e-3 6 0.135 1 0.364 0.364 1 0.135h8l1-0.109 8.39-8.39 0.109-1-1e-3 -34-0.135-1-0.363-0.363-1-0.025-0.473 0.388-27.527 27.5-1 0.891-1 0.218-0.475 0.391-18.525 18.5-1 0.891-1 0.218-0.475 0.391-3.915 4-0.109 1-1e-3 30 0.136 2 0.364 0.364 2 0.136 3-1e-3 1-0.134 0.365-0.365zm412 0 0.136-2-1e-3 -30-0.109-1-3.915-4-0.475-0.391-1-0.218-1-0.891-18.525-18.5-0.475-0.391-1-0.218-1-0.891-27.527-27.5-0.473-0.388-1 0.025-0.363 0.363-0.135 1-1e-3 34 0.109 1 8.39 8.39 1 0.109h8l1-0.135 0.364-0.364 0.136-2-1e-3 -6-0.135-1-0.364-0.364-1-0.135-7-2e-3 -1-0.135-0.364-0.364-0.135-1 0.019-12 0.304-2 0.176-0.167 0.176 0.167 0.293 1 1.531 1.391 1 0.218 0.475 0.391 14.915 15 0.109 1 2e-3 5 0.135 1 0.364 0.364 1 0.135 6 2e-3 1 0.109 7.497 7.39 0.711 1-0.208 0.218-1 0.261-14 0.022-1 0.135-0.364 0.364-0.135 1v7l0.109 1 1.39 1.391 1 0.243 0.366 0.366 0.268 1 0.366 0.365 1 0.134 4 0.108 1 0.601 0.218-0.208 0.262-1 0.021-2 0.135-1 0.364-0.364 1-0.135h4l1 0.109 2 1.781 1 0.218 1.39 1.391 0.109 1v7l-0.135 1-0.364 0.364-4 0.273-0.363 0.363-0.027 1 0.782 1 0.217 1 1.782 2 0.218 1 2.782 3 0.244 1 0.365 0.365 1 0.134h4l1-0.135 0.364-0.364zm-202.36 82.208-0.218-0.208-0.261-1-0.131-3-0.78-1-0.109-1-2e-3 -6-0.109-1-0.78-1-0.22-5-0.78-1-0.22-4-0.78-1-0.22-4-0.78-1-0.246-4-0.364-0.364-1-0.133-1 0.133-0.364 0.364-0.246 4-0.78 1-0.22 4-0.78 1-0.22 4-0.78 1-0.22 5-0.78 1-0.109 1-2e-3 6-0.109 1-0.78 1-0.131 3-0.261 1-0.218 0.208-1-0.711-12.5-12.497-0.891-1-0.218-1-2.782-3-0.217-1-0.784-1-0.216-1-0.784-1-0.216-1-0.784-1-0.216-1-0.784-1-0.216-1-0.782-1-0.22-2-0.78-1-0.22-3-0.78-1-0.109-1v-14l0.109-1 0.78-1 0.22-3 0.78-1 0.22-2 0.782-1 0.216-1 0.784-1 0.216-1 0.784-1 0.217-1 1.782-2 0.218-1 1.782-2 0.218-1 0.391-0.475 9-9.05 0.391-0.475 0.218-1 0.391-0.475 4.391-4.525 0.218-1 1.782-2 0.218-1 1.782-2 0.217-1 0.784-1 0.216-1 0.784-1 0.243-1 0.365-0.365 1-0.132 1 0.132 0.365 0.365 0.243 1 0.784 1 0.216 1 0.784 1 0.217 1 1.782 2 0.218 1 1.782 2 0.218 1 4.391 4.525 0.391 0.475 0.218 1 0.391 0.475 9 9.05 0.391 0.475 0.218 1 1.782 2 0.218 1 1.782 2 0.217 1 0.784 1 0.216 1 0.784 1 0.216 1 0.782 1 0.22 2 0.78 1 0.22 3 0.78 1 0.109 1v14l-0.109 1-0.78 1-0.22 3-0.78 1-0.22 2-0.782 1-0.216 1-0.784 1-0.216 1-0.784 1-0.216 1-0.784 1-0.216 1-0.784 1-0.217 1-2.782 3-0.218 1-13.391 13.497-1 0.711zm-54 30.182-1 0.109h-5l-1-0.109-1-0.78-4-0.22-1-0.78-2-0.22-1-0.78-2-0.22-1-0.782-1-0.217-2-1.782-1-0.218-2-1.782-1-0.218-0.475-0.391-6.916-7-0.218-1-1.782-2-0.218-1-1.782-2-0.218-1-1.782-2-0.217-1-0.784-1-0.216-1-0.784-1-0.217-1-1.782-2-0.218-1-1.782-2-0.218-1-2.782-3-0.218-1-0.891-1-3.5-3.393-1-0.243-0.363-0.364 1e-3 -1 0.362-0.363 2-0.246 1-0.781 3-0.22 1-0.78 2-0.22 1-0.782 1-0.216 1-0.782 2-0.22 1-0.782 1-0.216 1-0.784 1-0.216 1-0.784 1-0.216 1-0.784 1-0.216 1-0.784 1-0.216 1-0.784 1-0.216 1-0.784 1-0.216 1-0.782 2-0.22 1-0.78 3-0.22 1-0.78 6-0.22 1-0.78 1-0.109 2 0.109 1 0.78 7 0.22 1 0.78 2 0.22 1 0.782 1 0.216 1 0.784 1 0.216 1 0.784 1 0.216 1 0.784 1 0.217 2 1.782 1 0.218 0.475 0.391 7.525 7.525 0.391 0.475 0.218 1 2.782 3 0.217 1 0.784 1 0.216 1 0.784 1 0.216 1 0.784 1 0.216 1 0.784 1 0.216 1 0.784 1 0.216 1 0.784 1 0.216 1 0.784 1 0.214 1 0.602 1-0.208 0.218-1 0.262-2-0.09-1-0.78-3-0.22-1-0.78-5-0.22-1-0.78-5-0.22-1-0.78-1-0.109-8 0.019-2 0.199-0.264 0.281 0.264 0.218 1 0.251 2 1.922 1 0.217 1 0.784 1 0.216 1 0.784 1 0.216 1 0.784 1 0.216 1 0.784 1 0.216 1 0.784 1 0.216 1 0.784 1 0.216 1 0.784 1 0.216 1 0.782 2 0.22 1 0.782 1 0.216 1 0.782 2 0.22 1 0.894 1 0.319 0.167 0.177-0.167 0.177-1 0.319-1 0.895-1 0.218-2 1.782-1 0.218-2 1.782-1 0.217-1 0.784-1 0.216-1 0.784-1 0.217-2 1.783-1 0.217-1 0.783-2 0.219-1 0.797-3 0.202-1 0.781-5 0.219-1 0.78zm101 0-2 0.11-4-1e-3 -1-0.109-1-0.78-5-0.219-1-0.781-3-0.202-1-0.797-2-0.219-1-0.783-1-0.217-2-1.783-1-0.217-1-0.784-1-0.216-1-0.784-1-0.217-2-1.782-1-0.218-2-1.782-1-0.218-1-0.895-1-0.319-0.167-0.177 0.167-0.177 1-0.319 1-0.894 2-0.22 1-0.782 1-0.216 1-0.782 2-0.22 1-0.782 1-0.216 1-0.784 1-0.216 1-0.784 1-0.216 1-0.784 1-0.216 1-0.784 1-0.216 1-0.784 1-0.216 1-0.784 1-0.216 1-0.784 1-0.217 2-1.922 1-0.251 0.264-0.218-0.264-0.281-2-0.199-8-0.019-1 0.109-1 0.78-5 0.22-1 0.78-5 0.22-1 0.78-3 0.22-1 0.78-2 0.09-1-0.262-0.208-0.218 0.602-1 0.214-1 0.784-1 0.216-1 0.784-1 0.216-1 0.784-1 0.216-1 0.784-1 0.216-1 0.784-1 0.216-1 0.784-1 0.216-1 0.784-1 0.217-1 2.782-3 0.218-1 0.391-0.475 7-7.025 1-0.891 1-0.218 2-1.782 1-0.217 1-0.784 1-0.216 1-0.784 1-0.216 1-0.784 1-0.216 1-0.782 2-0.22 1-0.78 7-0.22 1-0.78 2-0.109 1 0.109 1 0.78 6 0.22 1 0.78 3 0.22 1 0.78 2 0.22 1 0.782 1 0.216 1 0.784 1 0.216 1 0.784 1 0.216 1 0.784 1 0.216 1 0.784 1 0.216 1 0.784 1 0.216 1 0.784 1 0.216 1 0.782 2 0.22 1 0.782 1 0.216 1 0.782 2 0.22 1 0.78 3 0.22 1 0.781 2 0.246 0.362 0.363 1e-3 1-0.363 0.364-1 0.243-3.5 3.393-0.891 1-0.218 1-2.782 3-0.218 1-1.782 2-0.218 1-1.782 2-0.217 1-0.784 1-0.216 1-0.784 1-0.217 1-1.782 2-0.218 1-1.782 2-0.218 1-1.782 2-0.218 1-6.391 6.5-1 0.891-1 0.218-2 1.782-1 0.218-2 1.782-1 0.217-1 0.782-2 0.22-1 0.78-2 0.22-1 0.78-4 0.22-1 0.78zm-53-6-1 0.108-1-0.108-0.475-0.39-1.916-2-0.218-1-0.391-0.475-5.388-5.525 0.025-1 0.363-0.364 1-0.244 0.475-0.392 4.525-4.5 1.391-1.5 0.244-1 0.365-0.365 1-0.132 1 0.132 0.365 0.365 0.244 1 1.391 1.5 4.525 4.5 0.475 0.392 1 0.244 0.363 0.364 0.025 1-5.388 5.525-0.391 0.475-0.218 1-2.391 2.39zm-54 72.999-1-0.026-0.363-0.363-0.135-1-3e-3 -4-0.109-1-0.78-1-0.22-3-0.78-1-0.22-2-0.78-1-0.22-2-0.78-1-0.22-2-0.78-1-0.22-2-0.78-1-0.22-4-0.78-1-0.109-1v-7l0.109-1 0.78-1 0.22-3 0.78-1 0.22-3 0.782-1 0.216-1 0.784-1 0.216-1 0.784-1 0.217-1 1.782-2 0.218-1 7.391-7.391 1-0.218 2-1.782 1-0.217 1-0.784 1-0.216 1-0.784 1-0.216 1-0.785 1-0.217 1-0.798 3-0.202 1-0.782 3-0.218 1-0.78 3-0.22 1-0.78 4-0.22 1-0.78 3-0.108 1 0.135 0.363 0.363 0.026 1-0.781 1-0.217 1-1.782 2-0.217 1-0.784 1-0.216 1-0.784 1-0.216 1-0.784 1-0.217 1-1.782 2-0.217 1-0.782 1-0.22 2-0.782 1-0.216 1-0.784 1-0.216 1-0.782 1-0.219 2-0.782 1-0.198 1-0.774 1-0.013 1 0.2 1 0.176 0.167 0.176-0.167 0.291-1 13.533-13.525 0.391-0.475 0.218-1 0.391-0.475 4.391-4.525 0.218-1 0.391-0.475 2-2.022 1-0.711 0.218 0.208 0.261 1 0.131 3 0.78 1 0.22 5 0.78 1 0.22 7 0.78 1 0.109 1v5l-0.109 1-0.78 1-0.22 5-0.78 1-0.22 2-0.78 1-0.22 2-0.782 1-0.216 1-0.784 1-0.216 1-0.784 1-0.217 1-1.782 2-0.218 1-8.391 8.391-1 0.217-1 0.784-1 0.216-1 0.784-1 0.216-1 0.784-1 0.216-1 0.782-2 0.22-1 0.78-4 0.22-1 0.78-6 0.22-1 0.78-4 0.22-1 0.78-2 0.22-1 0.782-1 0.216-1 0.784-1 0.216-1 0.781zm107-0.026-1 0.026-1-0.781-1-0.216-1-0.784-1-0.216-1-0.782-2-0.22-1-0.78-4-0.22-1-0.78-6-0.22-1-0.78-4-0.22-1-0.78-2-0.22-1-0.782-1-0.216-1-0.784-1-0.216-1-0.784-1-0.216-1-0.784-1-0.217-8.391-8.391-0.218-1-1.782-2-0.217-1-0.784-1-0.216-1-0.784-1-0.216-1-0.782-1-0.22-2-0.78-1-0.22-2-0.78-1-0.22-5-0.78-1-0.109-1v-5l0.109-1 0.78-1 0.22-7 0.78-1 0.22-5 0.78-1 0.131-3 0.261-1 0.218-0.208 1 0.711 2 2.022 0.391 0.475 0.218 1 4.391 4.525 0.391 0.475 0.218 1 0.391 0.475 13.533 13.525 0.291 1 0.176 0.167 0.176-0.167 0.2-1-0.013-1-0.774-1-0.198-1-0.782-1-0.219-2-0.782-1-0.216-1-0.784-1-0.216-1-0.782-1-0.22-2-0.782-1-0.217-1-1.782-2-0.217-1-0.784-1-0.216-1-0.784-1-0.216-1-0.784-1-0.217-1-1.782-2-0.217-1-0.781-1 0.026-1 0.363-0.363 1-0.135 3 0.108 1 0.78 4 0.22 1 0.78 3 0.22 1 0.78 3 0.218 1 0.782 3 0.202 1 0.798 1 0.217 1 0.785 1 0.216 1 0.784 1 0.216 1 0.784 1 0.217 2 1.782 1 0.218 7.391 7.391 0.218 1 1.782 2 0.217 1 0.784 1 0.216 1 0.784 1 0.216 1 0.782 1 0.22 3 0.78 1 0.22 3 0.78 1 0.109 1v7l-0.109 1-0.78 1-0.22 4-0.78 1-0.22 2-0.78 1-0.22 2-0.78 1-0.22 2-0.78 1-0.22 2-0.78 1-0.22 3-0.78 1-0.109 1-3e-3 4-0.135 1-0.363 0.363zm225 169.88-1-0.637-1-0.107-123-0.02-1 0.017-1 0.891-1 0.107-1-0.108-0.471-0.388-0.737-1 0.208-0.218 1-0.261 3-0.019 1-0.891 4-0.219 1-0.782 4-0.22 1-0.78 3-0.22 1-0.78 3-0.247 0.363-0.363 0.025-1-4.388-4.525-0.391-0.475-0.218-1-0.891-1-8.025-8-0.475-0.391-1-0.218-0.475-0.391-6.05-6-0.475-0.391-1-0.218-4-3.782-1-0.218-4-3.782-1-0.218-2-1.782-1-0.218-2-1.782-1-0.218-2-1.782-1-0.218-2-1.782-1-0.218-2-1.782-1-0.217-1-0.784-1-0.217-2-1.782-1-0.217-1-0.784-1-0.216-1-0.784-1-0.216-1-0.784-1-0.216-1-0.784-1-0.216-1-0.784-1-0.216-1-0.784-1-0.216-1-0.784-1-0.216-1-0.784-1-0.216-1-0.784-1-0.216-1-0.782-2-0.22-1-0.782-1-0.216-1-0.784-1-0.216-1-0.782-2-0.22-1-0.782-1-0.216-1-0.782-2-0.22-1-0.78-2-0.22-1-0.78-2-0.22-1-0.78-2-0.22-1-0.78-2-0.22-1-0.78-2-0.22-1-0.78-3-0.22-1-0.78-3-0.22-1-0.78-3-0.22-1-0.78-3-0.22-1-0.78-4-0.22-1-0.78-5-0.22-1-0.78-5-0.22-1-0.78-7-0.22-1-0.78-1-0.109-8-2e-3 -1-0.109-1-0.78-1-0.109h-32l-1 0.109-1 0.78-1 0.109-8 2e-3 -1 0.109-1 0.78-7 0.22-1 0.78-5 0.22-1 0.78-5 0.22-1 0.78-4 0.22-1 0.78-3 0.22-1 0.78-3 0.22-1 0.78-3 0.22-1 0.78-3 0.22-1 0.78-2 0.22-1 0.78-2 0.22-1 0.78-2 0.22-1 0.78-2 0.22-1 0.78-2 0.22-1 0.78-2 0.22-1 0.782-1 0.216-1 0.782-2 0.22-1 0.782-1 0.216-1 0.784-1 0.216-1 0.782-2 0.22-1 0.782-1 0.216-1 0.784-1 0.216-1 0.784-1 0.216-1 0.784-1 0.216-1 0.784-1 0.216-1 0.784-1 0.216-1 0.784-1 0.216-1 0.784-1 0.216-1 0.784-1 0.216-1 0.784-1 0.217-2 1.782-1 0.217-1 0.784-1 0.217-2 1.782-1 0.218-2 1.782-1 0.218-2 1.782-1 0.218-2 1.782-1 0.218-2 1.782-1 0.218-4 3.782-1 0.218-4 3.782-1 0.218-0.475 0.391-6.05 6-0.475 0.391-1 0.218-0.475 0.391-8.525 8.525-0.391 0.475-0.218 1-0.391 0.475-4.388 4.525 0.025 1 0.363 0.363 3 0.247 1 0.78 3 0.22 1 0.78 4 0.22 1 0.782 4 0.219 1 0.891 3 0.019 1 0.261 0.208 0.218-0.737 1-0.471 0.388-1 0.108-1-0.107-1-0.891-1-0.017-123 0.02-1 0.107-1 0.637-1.245-1.245 0.747-1 3.889-4 0.218-1 0.391-0.475 4.391-4.525 0.218-1 0.391-0.475 4-4.05 0.391-0.475 0.218-1 0.391-0.475 10-10.05 0.391-0.475 0.243-1 0.366-0.366 1-0.243 0.475-0.391 12.05-12 0.475-0.391 1-0.218 4.525-4.391 0.475-0.391 1-0.218 4-3.782 1-0.218 2.525-2.391 0.475-0.391 1-0.218 3-2.782 1-0.218 2-1.782 1-0.218 2-1.782 1-0.218 2-1.782 1-0.218 2-1.782 1-0.218 2-1.782 1-0.218 2-1.782 1-0.217 1-0.784 1-0.217 2-1.782 1-0.217 1-0.784 1-0.217 2-1.782 1-0.217 1-0.784 1-0.216 1-0.784 1-0.216 1-0.784 1-0.216 1-0.784 1-0.217 2-1.782 1-0.217 1-0.784 1-0.216 1-0.782 2-0.22 1-0.782 1-0.216 1-0.784 1-0.216 1-0.784 1-0.216 1-0.784 1-0.216 1-0.784 1-0.216 1-0.784 1-0.216 1-0.782 2-0.22 1-0.782 1-0.216 1-0.782 2-0.22 1-0.782 1-0.216 1-0.784 1-0.216 1-0.782 2-0.22 1-0.78 2-0.22 1-0.78 2-0.22 1-0.782 1-0.216 1-0.782 2-0.22 1-0.78 2-0.22 1-0.78 2-0.22 1-0.78 2-0.22 1-0.78 3-0.22 1-0.78 2-0.22 1-0.78 3-0.22 1-0.78 3-0.22 1-0.78 3-0.22 1-0.78 4-0.22 1-0.78 3-0.22 1-0.78 4-0.22 1-0.78 5-0.22 1-0.78 1-0.109 4-2e-3 1-0.109 1-0.78 6-0.22 1-0.78 1-0.109 6-2e-3 1-0.109 1-0.78 1-0.109 9-2e-3 1-0.109 1-0.78 1-0.109 25-1e-3 1-0.021 1-0.261 0.208-0.218-0.711-1-1.888-2-0.218-1-0.891-1-8.025-8-0.475-0.391-1-0.218-0.475-0.391-4.525-4.391-1-0.218-3-2.782-1-0.218-2-1.782-1-0.218-2-1.782-1-0.218-2-1.782-1-0.217-1-0.784-1-0.216-1-0.784-1-0.217-2-1.782-1-0.217-1-0.784-1-0.217-2-1.781-1-0.11-11-1e-3 -1-0.109-1-0.78-3-0.22-1-0.782-1-0.216-1-0.782-2-0.22-2-1.781-1-0.217-1-0.784-1-0.217-0.475-0.391-8.525-8.525-0.391-0.475-0.218-1-1.782-2-0.218-1-1.782-2-0.217-1-0.782-1-0.22-2-0.782-1-0.216-1-0.782-1-0.22-2-0.782-1-0.216-1-0.782-1-0.22-2-0.78-1-0.22-2-0.78-1-0.22-3-0.782-1-0.216-1-0.781-1 0.026-1 0.363-0.363 1-0.135 3 0.108 1 0.78 4 0.22 1 0.78 5 0.22 1 0.78 3 0.22 1 0.78 3 0.22 1 0.782 1 0.216 1 0.784 1 0.216 1 0.784 1 0.216 1 0.784 1 0.216 1 0.784 1 0.217 2 1.782 1 0.218 1 0.891 6.391 6.5 0.218 1 1.782 2 0.217 1 0.784 1 0.216 1 0.784 1 0.216 1 0.782 1 0.22 2 0.78 1 0.22 2 0.78 1 0.109 1 2e-3 5 0.108 1 0.391 0.475 1 0.915 2 0.22 1 0.782 1 0.216 1 0.784 1 0.216 1 0.784 1 0.216 1 0.784 1 0.216 1 0.784 1 0.216 1 0.784 1 0.217 2 1.782 1 0.218 2 1.782 1 0.218 2 1.782 1 0.218 2 1.782 1 0.218 3 2.782 1 0.218 0.475 0.391 12.916 13 0.218 1 2.782 3 0.218 1 2.782 3 0.218 1 1.782 2 0.217 1 0.784 1 0.216 1 0.784 1 0.217 1 1.782 2 0.217 1 0.782 1 0.22 2 0.782 1 0.216 1 0.782 1 0.22 2 0.782 1 0.219 4 0.919 1 0.118 1 3e-3 3 0.174 1 0.175 0.166 0.175-0.166 0.174-1 0.149-6 3e-3 -80 0.109-1 3.39-3.39 1-0.108 1 0.108 0.475 0.39 2.915 3 0.109 1 3e-3 80 0.149 6 0.174 1 0.175 0.166 0.175-0.166 0.174-1 3e-3 -3 0.118-1 0.919-1 0.219-4 0.782-1 0.22-2 0.782-1 0.216-1 0.782-1 0.22-2 0.782-1 0.217-1 1.782-2 0.217-1 0.784-1 0.216-1 0.784-1 0.217-1 1.782-2 0.218-1 2.782-3 0.218-1 2.782-3 0.218-1 12.916-13 0.475-0.391 1-0.218 3-2.782 1-0.218 2-1.782 1-0.218 2-1.782 1-0.218 2-1.782 1-0.218 2-1.782 1-0.217 1-0.784 1-0.216 1-0.784 1-0.216 1-0.784 1-0.216 1-0.784 1-0.216 1-0.784 1-0.216 1-0.782 2-0.22 1-0.915 0.391-0.475 0.108-1 2e-3 -5 0.109-1 0.78-1 0.22-2 0.78-1 0.22-2 0.782-1 0.216-1 0.784-1 0.216-1 0.784-1 0.217-1 1.782-2 0.218-1 6.391-6.5 1-0.891 1-0.218 2-1.782 1-0.217 1-0.784 1-0.216 1-0.784 1-0.216 1-0.784 1-0.216 1-0.784 1-0.216 1-0.782 3-0.22 1-0.78 3-0.22 1-0.78 5-0.22 1-0.78 4-0.22 1-0.78 3-0.108 1 0.135 0.363 0.363 0.026 1-0.781 1-0.216 1-0.782 1-0.22 3-0.78 1-0.22 2-0.78 1-0.22 2-0.782 1-0.216 1-0.782 1-0.22 2-0.782 1-0.216 1-0.782 1-0.22 2-0.782 1-0.217 1-1.782 2-0.218 1-1.782 2-0.218 1-0.391 0.475-8.525 8.525-0.475 0.391-1 0.217-1 0.784-1 0.217-2 1.781-2 0.22-1 0.782-1 0.216-1 0.782-3 0.22-1 0.78-1 0.109-11 1e-3 -1 0.11-2 1.781-1 0.217-1 0.784-1 0.217-2 1.782-1 0.217-1 0.784-1 0.216-1 0.784-1 0.217-2 1.782-1 0.218-2 1.782-1 0.218-2 1.782-1 0.218-3 2.782-1 0.218-4.525 4.391-0.475 0.391-1 0.218-0.475 0.391-8.025 8-0.891 1-0.218 1-1.888 2-0.711 1 0.208 0.218 1 0.261 1 0.021 25 1e-3 1 0.109 1 0.78 1 0.109 9 2e-3 1 0.109 1 0.78 1 0.109 6 2e-3 1 0.109 1 0.78 6 0.22 1 0.78 6 0.22 1 0.78 5 0.22 1 0.78 4 0.22 1 0.78 3 0.22 1 0.78 4 0.22 1 0.78 3 0.22 1 0.78 3 0.22 1 0.78 3 0.22 1 0.78 2 0.22 1 0.78 3 0.22 1 0.78 2 0.22 1 0.78 2 0.22 1 0.78 2 0.22 1 0.78 2 0.22 1 0.782 1 0.216 1 0.782 2 0.22 1 0.78 2 0.22 1 0.78 2 0.22 1 0.782 1 0.216 1 0.784 1 0.216 1 0.782 2 0.22 1 0.782 1 0.216 1 0.782 2 0.22 1 0.782 1 0.216 1 0.784 1 0.216 1 0.784 1 0.216 1 0.784 1 0.216 1 0.784 1 0.216 1 0.784 1 0.216 1 0.782 2 0.22 1 0.782 1 0.216 1 0.784 1 0.217 2 1.782 1 0.217 1 0.784 1 0.216 1 0.784 1 0.216 1 0.784 1 0.216 1 0.784 1 0.217 2 1.782 1 0.217 1 0.784 1 0.217 2 1.782 1 0.217 1 0.784 1 0.217 2 1.782 1 0.218 2 1.782 1 0.218 2 1.782 1 0.218 2 1.782 1 0.218 2 1.782 1 0.218 2 1.782 1 0.218 3 2.782 1 0.218 3 2.782 1 0.218 4 3.782 1 0.218 5 4.782 1 0.218 0.475 0.391 12.05 12 0.475 0.391 1 0.243 0.366 0.366 0.243 1 0.391 0.475 10 10.05 0.391 0.475 0.218 1 0.391 0.475 4 4.05 0.391 0.475 0.218 1 4.391 4.525 0.391 0.475 0.218 1 3.889 4 0.747 1-1.245 1.245zm-348.78-156.24 0.261-1-0.088-3-3.916-4-0.475-0.391-1-0.218-6.525-6.391-0.475-0.391-1-0.218-3.525-3.391-0.475-0.391-1-0.218-3.525-3.391-0.475-0.391-1-0.217-3-2.783-1-0.199-4-3.772-1 0.039-0.305 0.323 0.835 1 16.995 17 0.475 0.391 1 0.218 0.475 0.391 7.525 7.391 1 0.218 3 2.888 1 0.711 0.218-0.208zm140.06 0 0.718-0.503 3-2.888 1-0.218 0.475-0.391 7.05-7 0.475-0.391 1-0.218 1-0.891 16.47-16.5 0.835-1-0.305-0.323-1-0.039-4 3.772-1 0.199-3 2.783-1 0.217-4 3.782-1 0.218-4 3.782-1 0.218-0.475 0.391-6.05 6-0.475 0.391-1 0.218-1 0.891-3.391 3.5-0.088 3 0.261 1 0.218 0.208 0.282-0.208zm-258.81 150 0.916-1 0.218-1 0.391-0.475 5.391-5.525 0.218-1 0.391-0.475 17-17.025 1-0.891 1-0.218 0.475-0.391 4.05-4 0.475-0.391 1-0.218 4-3.782 1-0.218 2.525-2.391 0.475-0.391 1-0.218 3-2.782 1-0.218 2-1.782 1-0.217 1-0.784 1-0.217 2-1.782 1-0.218 2-1.782 1-0.217 1-0.784 1-0.217 2-1.782 1-0.217 1-0.784 1-0.216 1-0.784 1-0.216 1-0.784 1-0.216 1-0.784 1-0.216 1-0.784 1-0.216 1-0.784 1-0.216 1-0.784 1-0.216 1-0.784 1-0.216 1-0.782 2-0.22 1-0.782 1-0.216 1-0.784 1-0.216 1-0.782 2-0.22 1-0.782 1-0.216 1-0.782 2-0.22 1-0.78 2-0.22 1-0.78 2-0.22 1-0.782 1-0.216 1-0.782 3-0.22 1-0.78 2-0.22 1-0.78 2-0.22 1-0.78 3-0.22 1-0.78 3-0.22 1-0.78 3-0.22 1-0.78 3-0.22 1-0.78 4-0.22 1-0.78 3-0.22 1-0.78 5-0.22 1-0.78 6-0.22 1-0.78 1-0.109 5-2e-3 1-0.109 1-0.78 1-0.109 10-2e-3 1-0.109 1-0.78 1-0.109 6-3e-3 1-0.135 0.363-0.363 0.026-1-0.781-1-0.216-1-0.782-1-0.22-2-0.782-1-0.216-1-0.784-1-0.216-1-0.784-1-0.216-1-0.784-1-0.216-1-0.784-1-0.217-1-1.782-2-0.217-1-0.784-1-0.217-1-2.391-2.39-1-0.109h-11l-1 0.109-1 0.78-1 0.109-7 2e-3 -1 0.109-1 0.78-1 0.109-4 2e-3 -1 0.109-1 0.78-5 0.22-1 0.78-4 0.22-1 0.78-5 0.22-1 0.78-3 0.22-1 0.78-4 0.22-1 0.78-3 0.22-1 0.78-3 0.22-1 0.78-2 0.22-1 0.78-3 0.22-1 0.78-2 0.22-1 0.78-2 0.22-1 0.78-2 0.22-1 0.78-2 0.22-1 0.78-2 0.22-1 0.78-2 0.22-1 0.782-1 0.216-1 0.782-2 0.22-1 0.782-1 0.216-1 0.782-2 0.22-1 0.782-1 0.216-1 0.784-1 0.216-1 0.782-2 0.22-1 0.782-1 0.216-1 0.784-1 0.216-1 0.784-1 0.216-1 0.784-1 0.216-1 0.784-1 0.216-1 0.784-1 0.216-1 0.784-1 0.216-1 0.784-1 0.216-1 0.784-1 0.217-2 1.782-1 0.217-1 0.784-1 0.216-1 0.784-1 0.217-2 1.782-1 0.217-1 0.784-1 0.217-2 1.782-1 0.218-2 1.782-1 0.217-1 0.784-1 0.217-2 1.782-1 0.218-3 2.782-1 0.218-2 1.782-1 0.218-4 3.782-1 0.218-3 2.782-1 0.218-0.475 0.391-3.525 3.391-1 0.218-0.475 0.391-13.05 13-0.475 0.391-1 0.218-1 0.916-0.391 0.475-0.218 1-0.391 0.475-8.391 8.525-0.218 1-3.391 3.525-0.391 0.475-0.218 1-3.782 4-0.218 1-1.782 2-0.218 1-2.779 3 0.025 1 0.363 0.363 1 0.135 19 3e-3 1 0.109 1 0.78 1 0.109h15l1-0.109 0.475-0.39zm395.02 0 0.5-0.39 1-0.109 19-3e-3 1-0.135 0.363-0.363 0.025-1-2.779-3-0.218-1-1.782-2-0.218-1-3.391-3.525-0.391-0.475-0.218-1-3.782-4-0.218-1-8.391-8.525-0.391-0.475-0.218-1-0.391-0.475-1-0.916-1-0.218-0.475-0.391-13.525-13.391-1-0.218-4-3.782-1-0.218-3-2.782-1-0.218-0.475-0.391-3.525-3.391-1-0.218-2-1.782-1-0.218-3-2.782-1-0.218-2-1.782-1-0.217-1-0.784-1-0.217-2-1.782-1-0.218-2-1.782-1-0.217-1-0.784-1-0.217-2-1.782-1-0.217-1-0.784-1-0.216-1-0.784-1-0.217-2-1.782-1-0.217-1-0.784-1-0.216-1-0.784-1-0.216-1-0.784-1-0.216-1-0.784-1-0.216-1-0.784-1-0.216-1-0.784-1-0.216-1-0.784-1-0.216-1-0.784-1-0.216-1-0.782-2-0.22-1-0.782-1-0.216-1-0.784-1-0.216-1-0.782-2-0.22-1-0.782-1-0.216-1-0.782-2-0.22-1-0.782-1-0.216-1-0.782-2-0.22-1-0.78-2-0.22-1-0.78-2-0.22-1-0.78-2-0.22-1-0.78-2-0.22-1-0.78-2-0.22-1-0.78-3-0.22-1-0.78-2-0.22-1-0.78-3-0.22-1-0.78-3-0.22-1-0.78-4-0.22-1-0.78-3-0.22-1-0.78-5-0.22-1-0.78-4-0.22-1-0.78-5-0.22-1-0.78-1-0.109-4-2e-3 -1-0.109-1-0.78-1-0.109-7-2e-3 -1-0.109-1-0.78-1-0.109h-11l-1 0.109-2.391 2.39-0.217 1-0.784 1-0.217 1-1.782 2-0.217 1-0.784 1-0.216 1-0.784 1-0.216 1-0.784 1-0.216 1-0.784 1-0.216 1-0.782 1-0.22 2-0.782 1-0.216 1-0.781 1 0.026 1 0.363 0.363 1 0.135 6 3e-3 1 0.109 1 0.78 1 0.109 10 2e-3 1 0.109 1 0.78 1 0.109 5 2e-3 1 0.109 1 0.78 6 0.22 1 0.78 5 0.22 1 0.78 3 0.22 1 0.78 4 0.22 1 0.78 3 0.22 1 0.78 3 0.22 1 0.78 3 0.22 1 0.78 3 0.22 1 0.78 2 0.22 1 0.78 2 0.22 1 0.78 3 0.22 1 0.782 1 0.216 1 0.782 2 0.22 1 0.78 2 0.22 1 0.78 2 0.22 1 0.782 1 0.216 1 0.782 2 0.22 1 0.782 1 0.216 1 0.784 1 0.216 1 0.782 2 0.22 1 0.782 1 0.216 1 0.784 1 0.216 1 0.784 1 0.216 1 0.784 1 0.216 1 0.784 1 0.216 1 0.784 1 0.216 1 0.784 1 0.216 1 0.784 1 0.216 1 0.784 1 0.217 2 1.782 1 0.217 1 0.784 1 0.217 2 1.782 1 0.218 2 1.782 1 0.217 1 0.784 1 0.217 2 1.782 1 0.218 3 2.782 1 0.218 3 2.782 1 0.218 4 3.782 1 0.218 0.475 0.391 4.05 4 0.475 0.391 1 0.218 1 0.891 17 17.025 0.391 0.475 0.218 1 5.391 5.525 0.391 0.475 0.218 1 1.391 1.39 1 0.109h15l1-0.109 0.5-0.39zm-500.5 1.365-1 0.134h-33l-1-0.109-1-0.78-1-0.109-91-3e-3 -1-0.109-1-0.919-1-0.118-14-3e-3 -1-0.174-0.166-0.175 0.166-0.175 1-0.174 30-0.151 1-0.108 1-0.782 1-0.109 28-2e-3 1-0.109 1-0.78 1-0.109 28-2e-3 1-0.109 1-0.78 1-0.109 34-2e-3 1-0.109 1-0.78 1-0.109 15-1e-3 1 0.02 1 0.262 0.208 0.218-0.602 1-0.215 1-2.782 3-0.244 1-0.365 0.365zm623 0.025-1 0.109-32 1e-3 -2-0.135-0.365-0.365-0.244-1-2.782-3-0.215-1-0.602-1 0.208-0.218 1-0.262 16-0.019 1 0.109 1 0.78 1 0.109 34 2e-3 1 0.109 1 0.78 1 0.109 28 2e-3 1 0.109 1 0.78 1 0.109 28 2e-3 1 0.109 1 0.782 1 0.108 30 0.151 1 0.174 0.166 0.175-0.166 0.175-1 0.174-14 3e-3 -1 0.118-1 0.919-1 0.109-91 3e-3 -1 0.109-1 0.78z" fill="#D5AD58" fill-rule="evenodd"/>
</svg>
